<svg width="200" height="200" viewBox="0 0 200 200" fill="none" xmlns="http://www.w3.org/2000/svg">
<circle cx="100" cy="100" r="95" fill="#181818" stroke="#D7452C" stroke-width="10"/>
<circle cx="100" cy="99.9998" r="33.3333" fill="#D7452C"/>
<circle cx="100" cy="100" r="30" fill="#181818"/>
<rect x="98.9998" y="80" width="2" height="40" fill="#D7452C"/>
<rect x="80.9998" y="100" width="40" height="2" fill="#D7452C"/>
<path d="M178.52 118.39C178.67 117.774 178.968 117.27 179.489 116.667C179.648 116.476 180.082 116.102 180.819 115.359C181.301 114.871 181.558 114.544 181.605 114.263C181.673 113.854 181.44 113.108 180.866 111.903C180.291 110.697 180.024 109.898 180.094 109.281C180.165 108.663 180.612 107.938 181.446 106.881C182.278 105.836 182.679 105.163 182.705 104.749C182.723 104.464 182.552 104.088 182.193 103.504C181.619 102.562 181.288 102.109 181.201 101.952C180.829 101.248 180.647 100.578 180.655 99.9431L181.95 99.9594C181.968 100.517 182.355 101.274 183.037 102.389C183.706 103.503 184.031 104.301 183.997 104.831C183.957 105.464 183.54 106.267 182.71 107.286C181.879 108.318 181.433 108.977 181.382 109.427C181.33 109.878 181.61 110.614 182.189 111.793C182.767 112.973 182.987 113.848 182.883 114.474C182.796 114.998 182.326 115.673 181.399 116.585C180.457 117.508 179.935 118.162 179.778 118.697L178.52 118.39ZM172.15 135.859C172.433 135.291 172.859 134.874 173.5 134.401C173.697 134.249 174.226 133.988 175.11 133.426C175.688 133.056 176.034 132.741 176.148 132.48C176.315 132.1 176.246 131.307 175.986 129.998C175.727 128.688 175.61 127.942 175.817 127.356C176.024 126.769 176.639 126.166 177.688 125.321C178.734 124.489 179.291 123.926 179.41 123.528C179.491 123.255 179.424 122.854 179.205 122.204C178.857 121.157 178.661 120.547 178.616 120.374C178.431 119.599 178.369 119.007 178.52 118.39L179.778 118.697C179.67 119.244 179.864 120.066 180.278 121.306C180.68 122.542 180.803 123.388 180.651 123.897C180.47 124.506 179.867 125.19 178.83 125.998C177.789 126.819 177.19 127.358 177.039 127.785C176.888 128.213 177.026 128.931 177.296 130.217C177.565 131.503 177.59 132.417 177.335 132.998C177.122 133.485 176.487 134.055 175.381 134.741C174.258 135.433 173.581 135.947 173.31 136.435L172.15 135.859ZM161.95 151.312C162.36 150.828 162.861 150.511 163.598 150.205C163.825 150.105 164.388 149.965 165.38 149.631C166.03 149.41 166.412 149.232 166.581 149.002C166.825 148.667 166.956 147.895 166.986 146.56C167.017 145.226 167.141 144.388 167.484 143.868C167.826 143.349 168.553 142.898 169.776 142.332C170.992 141.776 171.652 141.352 171.864 140.995C172.009 140.75 172.022 140.331 171.968 139.648C171.886 138.548 171.789 137.985 171.783 137.806C171.773 137.009 171.867 136.428 172.15 135.859L173.31 136.435C173.085 136.945 173.068 137.779 173.2 139.079C173.32 140.373 173.249 141.196 172.978 141.653C172.655 142.2 171.922 142.73 170.72 143.264C169.511 143.809 168.816 144.201 168.566 144.579C168.317 144.958 168.232 145.744 168.217 147.058C168.201 148.371 168.002 149.251 167.627 149.764C167.313 150.193 166.58 150.582 165.342 150.984C164.086 151.388 163.318 151.738 162.939 152.147L161.95 151.312ZM148.469 164.03C148.983 163.655 149.535 163.455 150.323 163.331C150.568 163.287 151.139 163.272 152.182 163.182C152.866 163.121 153.27 163.027 153.488 162.843C153.805 162.576 154.105 161.845 154.451 160.555C154.797 159.266 155.108 158.469 155.564 158.046C156.02 157.622 156.769 157.431 158.085 157.138C159.392 156.854 160.152 156.604 160.435 156.3C160.63 156.092 160.782 155.649 160.892 154.973C161.074 153.885 161.103 153.303 161.14 153.127C161.32 152.352 161.539 151.797 161.95 151.312L162.939 152.147C162.598 152.589 162.394 153.407 162.212 154.701C162.021 155.986 161.746 156.793 161.383 157.181C160.95 157.646 160.136 157.978 158.841 158.212C157.537 158.456 156.779 158.683 156.446 158.992C156.114 159.301 155.856 160.057 155.529 161.329C155.203 162.601 154.81 163.421 154.324 163.831C153.918 164.174 153.085 164.394 151.79 164.524C150.477 164.652 149.698 164.766 149.232 165.074L148.469 164.03ZM132.333 173.347C132.915 173.092 133.509 173.044 134.305 173.093C134.554 173.103 135.127 173.241 136.166 173.377C136.847 173.464 137.315 173.444 137.571 173.317C137.943 173.133 138.4 172.48 139.043 171.31C139.687 170.139 140.079 169.489 140.615 169.172C141.151 168.856 142.012 168.786 143.36 168.812C144.696 168.846 145.486 168.77 145.833 168.542C146.071 168.386 146.278 168.03 146.53 167.392C146.94 166.368 147.183 165.775 147.261 165.614C147.62 164.902 147.955 164.404 148.469 164.03L149.232 165.074C148.796 165.423 148.414 166.182 147.93 167.396C147.439 168.599 146.989 169.33 146.545 169.622C146.014 169.971 145.112 170.111 143.797 170.064C142.472 170.023 141.666 170.055 141.275 170.286C140.884 170.517 140.526 171.159 139.906 172.317C139.285 173.476 138.717 174.193 138.147 174.475C137.671 174.712 136.817 174.743 135.528 174.56C134.222 174.371 133.373 174.331 132.852 174.531L132.333 173.347ZM114.605 178.642C115.233 178.539 115.812 178.611 116.572 178.853C116.811 178.923 117.325 179.172 118.299 179.557C118.938 179.807 119.34 179.912 119.618 179.844C120.021 179.746 120.616 179.236 121.501 178.235C122.386 177.234 123.017 176.67 123.614 176.493C124.212 176.315 125.054 176.435 126.356 176.787C127.645 177.142 128.421 177.239 128.812 177.101C129.082 177.006 129.36 176.693 129.758 176.135C130.403 175.239 130.689 174.744 130.8 174.603C131.305 173.986 131.75 173.601 132.333 173.347L132.852 174.531C132.351 174.778 131.802 175.407 131.067 176.488C130.327 177.557 129.745 178.144 129.243 178.321C128.643 178.532 127.742 178.47 126.477 178.107C125.201 177.747 124.419 177.603 123.984 177.732C123.549 177.862 122.981 178.413 122.121 179.407C121.261 180.401 120.542 180.95 119.925 181.1C119.408 181.226 118.563 181.044 117.347 180.582C116.115 180.11 115.372 179.852 114.817 179.918L114.605 178.642ZM96.0385 179.716C96.6732 179.756 97.2204 179.964 97.9062 180.371C98.1224 180.493 98.5664 180.859 99.4285 181.453C99.9946 181.841 100.362 182.044 100.648 182.04C101.063 182.035 101.757 181.684 102.844 180.907C103.931 180.13 104.672 179.736 105.294 179.697C105.916 179.658 106.709 179.98 107.899 180.613C109.076 181.247 109.811 181.532 110.224 181.485C110.508 181.452 110.85 181.228 111.363 180.773C112.191 180.042 112.676 179.623 112.818 179.513C113.459 179.039 113.978 178.746 114.605 178.642L114.817 179.918C114.271 180.034 113.591 180.538 112.611 181.405C111.63 182.259 110.9 182.709 110.371 182.769C109.739 182.842 108.874 182.563 107.723 181.926C106.559 181.291 105.829 180.959 105.376 180.988C104.923 181.017 104.246 181.412 103.185 182.188C102.124 182.964 101.3 183.325 100.664 183.333C100.132 183.34 99.3847 182.984 98.3223 182.233C97.2475 181.469 96.512 181.067 95.9566 181.007L96.0385 179.716ZM77.7139 176.511C78.3235 176.692 78.808 177.032 79.3849 177.581C79.568 177.749 79.9167 178.218 80.6229 178.99C81.0873 179.495 81.4582 179.781 81.7355 179.849C82.139 179.947 82.9094 179.737 84.1567 179.256C85.404 178.774 86.117 178.522 86.7316 178.623C87.3462 178.725 88.0461 179.224 89.0622 180.108C90.0655 180.991 90.7168 181.44 91.1294 181.487C91.4131 181.519 91.7965 181.384 92.399 181.055C93.3707 180.53 93.938 180.231 94.1009 180.156C94.8327 179.839 95.4039 179.676 96.0385 179.716L95.9566 181.007C95.3981 180.997 94.6224 181.329 93.4724 181.953C92.3236 182.564 91.511 182.832 90.9823 182.772C90.3505 182.7 89.5707 182.227 88.5932 181.348C87.6028 180.467 86.9679 179.974 86.5198 179.9C86.0717 179.825 85.3242 180.051 84.1149 180.569C82.9056 181.086 82.0463 181.256 81.4285 181.105C80.9116 180.979 80.2384 180.459 79.3718 179.489C78.4961 178.504 77.8723 177.933 77.3446 177.75L77.7139 176.511ZM60.709 169.189C61.2564 169.512 61.6577 169.941 62.0835 170.614C62.2203 170.821 62.4579 171.34 62.9544 172.261C63.2816 172.864 63.5251 173.199 63.7808 173.326C64.1527 173.511 64.941 173.499 66.264 173.304C67.5869 173.109 68.4382 173.08 69.009 173.329C69.5797 173.578 70.1495 174.207 70.9161 175.314C71.6707 176.416 72.1483 176.97 72.5401 177.108C72.8094 177.202 73.2767 177.165 73.9419 176.995C75.0135 176.727 75.5543 176.527 75.7299 176.49C76.5142 176.344 77.1044 176.33 77.7139 176.511L77.3446 177.75C76.8025 177.616 75.9756 177.75 74.7151 178.101C73.4586 178.441 72.6117 178.504 72.1098 178.327C71.51 178.116 70.8861 177.493 70.1556 176.401C69.413 175.303 68.9058 174.696 68.4896 174.514C68.0735 174.332 67.2799 174.393 65.9805 174.599C64.681 174.805 63.7739 174.767 63.2045 174.484C62.7279 174.248 62.1971 173.569 61.5648 172.433C60.927 171.28 60.5173 170.607 60.0498 170.302L60.709 169.189ZM45.7572 158.06C46.2226 158.492 46.5016 159.022 46.7729 159.771C46.862 160.003 46.9623 160.586 47.249 161.592C47.4391 162.251 47.6429 162.672 47.8609 162.856C48.1781 163.124 48.9583 163.288 50.2896 163.414C51.6209 163.54 52.3732 163.648 52.8765 164.014C53.3798 164.38 53.7839 165.144 54.2922 166.39C54.7898 167.63 55.1708 168.325 55.5177 168.553C55.7562 168.71 56.1639 168.76 56.85 168.739C57.9545 168.71 58.5962 168.699 58.7754 168.706C59.5717 168.754 60.1615 168.866 60.709 169.189L60.0498 170.302C59.5565 170.04 58.7088 169.988 57.4006 170.025C56.0992 170.051 55.2501 169.925 54.8056 169.633C54.2744 169.284 53.7902 168.511 53.314 167.287C52.8271 166.055 52.48 165.326 52.113 165.059C51.746 164.792 51.0156 164.713 49.7045 164.603C48.3934 164.494 47.5103 164.253 47.0247 163.843C46.6183 163.501 46.2534 162.727 45.9101 161.474C45.5655 160.202 45.2658 159.404 44.8747 159.006L45.7572 158.06ZM33.8338 143.879C34.1834 144.409 34.3407 144.981 34.4269 145.773C34.4586 146.019 34.4297 146.6 34.4699 147.645C34.4985 148.33 34.5967 148.788 34.765 149.018C35.0097 149.353 35.6832 149.651 36.9571 150.058C38.2309 150.464 38.9967 150.825 39.3989 151.3C39.8012 151.775 40.0246 152.602 40.223 153.934C40.4127 155.255 40.6293 156.011 40.9123 156.315C41.1069 156.523 41.5023 156.659 42.1739 156.801C43.2539 157.034 43.8203 157.105 43.9939 157.151C44.7615 157.367 45.2917 157.627 45.7572 158.06L44.8747 159.006C44.4489 158.645 43.6834 158.454 42.4038 158.18C41.1332 157.897 40.3269 157.585 39.9643 157.196C39.531 156.731 39.2326 155.876 39.0601 154.574C38.879 153.262 38.7028 152.481 38.4095 152.135C38.1162 151.789 37.3889 151.482 36.1314 151.096C34.8739 150.71 34.0933 150.293 33.7185 149.78C33.405 149.351 33.2216 148.522 33.1851 147.223C33.1516 145.906 33.0375 145.069 32.7519 144.59L33.8338 143.879ZM25.499 127.362C25.7103 127.961 25.743 128.544 25.6359 129.333C25.6074 129.58 25.4561 130.129 25.2442 131.153C25.1074 131.824 25.0789 132.237 25.1933 132.498C25.3598 132.878 25.9722 133.374 27.1119 134.072C28.2516 134.771 28.9236 135.294 29.2008 135.851C29.4781 136.408 29.5115 137.255 29.3869 138.596C29.2562 139.924 29.269 140.655 29.4804 141.012C29.6257 141.258 30.0079 141.529 30.6265 141.826C31.6203 142.308 32.1663 142.503 32.3242 142.587C33.0185 142.98 33.4841 143.349 33.8338 143.879L32.7519 144.59C32.4239 144.138 31.7005 143.71 30.5091 143.169C29.3284 142.622 28.6362 142.128 28.3655 141.67C28.0418 141.124 27.9621 140.247 28.1049 138.941C28.2417 137.624 28.2426 136.833 28.0405 136.426C27.8383 136.02 27.1905 135.558 26.0618 134.883C24.9331 134.208 24.2616 133.598 24.0067 133.016C23.7935 132.53 23.8225 131.669 24.0687 130.393C24.3216 129.101 24.4388 128.326 24.2774 127.792L25.499 127.362ZM21.2204 109.283C21.2927 109.913 21.1745 110.489 20.8943 111.235C20.8117 111.469 20.5204 111.972 20.0861 112.923C19.8036 113.548 19.6853 114.001 19.732 114.282C19.7999 114.691 20.2991 115.315 21.2326 116.271C22.1662 117.227 22.6853 117.782 22.8329 118.386C22.9806 118.99 22.8005 119.828 22.3843 121.109C21.9647 122.376 21.8113 123.15 21.9297 123.547C22.0111 123.821 22.293 124.119 22.8317 124.543C23.6961 125.23 24.1946 125.634 24.3272 125.754C24.9061 126.302 25.2878 126.763 25.499 127.362L24.2774 127.792C24.068 127.275 23.4503 126.693 22.4251 125.881C21.412 125.065 20.84 124.425 20.6883 123.916C20.507 123.308 20.6313 122.407 21.0577 121.164C21.4806 119.909 21.6818 119.133 21.5741 118.693C21.4664 118.252 20.9616 117.655 20.0099 116.748C19.0582 115.841 18.5582 115.12 18.4542 114.493C18.3672 113.969 18.5779 113.148 19.1313 111.972C19.6954 110.781 19.9718 109.986 19.9336 109.43L21.2204 109.283ZM21.2204 90.717C21.1482 91.3477 20.8974 91.8815 20.4559 92.5448C20.3225 92.7541 19.919 93.1773 19.281 94.0067C18.8646 94.5516 18.647 94.9663 18.629 95.2507C18.6027 95.6645 18.9412 96.3839 19.635 97.5253C20.3288 98.6667 20.7063 99.435 20.6984 100.057C20.6905 100.679 20.329 101.34 19.6357 102.494C18.942 103.635 18.604 104.355 18.6302 104.769C18.6483 105.053 18.8658 105.468 19.2822 106.013C19.9489 106.892 20.3535 107.308 20.4559 107.455C20.8974 108.118 21.1482 108.652 21.2204 109.283L19.9336 109.43C19.845 108.879 19.3911 108.174 18.5735 107.154C17.7686 106.133 17.3713 105.381 17.3376 104.85C17.2974 104.217 17.6356 103.367 18.3304 102.251C19.0246 101.123 19.397 100.494 19.4027 100.04C19.4085 99.5871 19.0244 98.8828 18.3297 97.7673C17.6349 96.6519 17.2962 95.8025 17.3364 95.169C17.37 94.6388 17.7668 93.8867 18.5718 92.8655C19.3905 91.8324 19.845 91.1208 19.9336 90.5701L21.2204 90.717ZM25.499 72.6376C25.2878 73.2364 24.9061 73.6973 24.3272 74.2453C24.1504 74.4195 23.6498 74.8295 22.8256 75.4751C22.2869 75.8998 22.0055 76.198 21.9241 76.4712C21.8057 76.8686 21.9596 77.6425 22.3791 78.9102C22.7987 80.1779 22.9806 81.0096 22.8329 81.6138C22.6853 82.218 22.1649 82.7793 21.2289 83.748C20.2954 84.7039 19.7966 85.328 19.7288 85.737C19.6821 86.0182 19.8003 86.4712 20.0829 87.0957C20.5338 88.1028 20.8278 88.5984 20.8943 88.7646C21.1745 89.5103 21.2927 90.0862 21.2204 90.717L19.9336 90.5701C19.9717 90.0137 19.6944 89.2253 19.1285 88.0474C18.5752 86.8711 18.364 86.0497 18.451 85.5257C18.5549 84.8993 19.0541 84.1776 20.0058 83.2707C20.9603 82.351 21.4664 81.7477 21.5741 81.3071C21.6818 80.8666 21.479 80.0964 21.0527 78.8537C20.6263 77.6111 20.5013 76.7111 20.6827 76.1026C20.8344 75.5934 21.4059 74.9534 22.419 74.1375C23.4482 73.3132 24.068 72.7251 24.2774 72.2081L25.499 72.6376ZM33.8338 56.1209C33.4841 56.6512 33.0185 57.0201 32.3242 57.4122C32.1104 57.5386 31.5619 57.7404 30.6165 58.1908C29.9978 58.4879 29.6156 58.759 29.4703 59.0044C29.259 59.3613 29.247 60.0929 29.3777 61.4216C29.5084 62.7502 29.4781 63.592 29.2008 64.1489C28.9236 64.7058 28.2487 65.2353 27.1036 65.9455C25.9639 66.644 25.3519 67.1399 25.1854 67.5198C25.071 67.7809 25.0999 68.1936 25.2367 68.8652C25.4526 69.947 25.6081 70.4895 25.6359 70.6664C25.743 71.4555 25.7103 72.0388 25.499 72.6376L24.2774 72.2081C24.4388 71.6742 24.3191 70.9055 24.0612 69.6246C23.8151 68.3486 23.7855 67.4882 23.9988 67.0015C24.2537 66.4199 24.925 65.809 26.0537 65.134C27.1879 64.4472 27.8383 63.9793 28.0405 63.5732C28.2426 63.1671 28.2388 62.3816 28.0959 61.0759C27.9531 59.7701 28.0318 58.8929 28.3554 58.3464C28.6262 57.8891 29.318 57.3944 30.4986 56.8472C31.6969 56.2957 32.4239 55.8614 32.7519 55.41L33.8338 56.1209ZM45.7572 41.94C45.2917 42.3725 44.7615 42.6325 43.9939 42.8491C43.7561 42.9214 43.1856 42.9992 42.1601 43.2128C41.4885 43.355 41.0934 43.4907 40.8988 43.6993C40.6159 44.0027 40.3996 44.7592 40.2099 46.0808C40.0201 47.4023 39.8012 48.2249 39.3989 48.6998C38.9967 49.1747 38.2266 49.5406 36.9447 49.9572C35.6708 50.3637 34.9981 50.6625 34.7533 50.9975C34.5851 51.2278 34.4869 51.6855 34.4583 52.3702C34.4079 53.4721 34.4425 54.0488 34.4269 54.2271C34.3407 55.0188 34.1834 55.5906 33.8338 56.1209L32.7519 55.41C33.0375 54.9307 33.1477 54.099 33.1738 52.7928C33.2103 51.4938 33.3933 50.6648 33.7069 50.2356C34.0816 49.7226 34.8618 49.3051 36.1194 48.9188C37.385 48.5224 38.1162 48.2109 38.4095 47.8646C38.7028 47.5183 38.8748 46.7427 39.0474 45.4405C39.2199 44.1384 39.5175 43.2829 39.9508 42.8183C40.3134 42.4294 41.1194 42.1166 42.39 41.834C43.6786 41.551 44.4489 41.3546 44.8747 40.9935L45.7572 41.94ZM60.709 30.8108C60.1615 31.1339 59.5717 31.2457 58.7754 31.2935C58.5277 31.3133 57.8803 31.3058 56.8333 31.2707C56.1471 31.2498 55.7397 31.3008 55.5012 31.4575C55.1543 31.6854 54.7735 32.3814 54.276 33.6206C53.7784 34.8598 53.3798 35.6192 52.8765 35.9857C52.3732 36.3521 51.6157 36.4641 50.2742 36.5984C48.9429 36.7245 48.163 36.8886 47.8459 37.1563C47.6278 37.3403 47.4601 37.7127 47.2859 38.3756C47.0013 39.4414 46.8304 40.059 46.7729 40.2286C46.5016 40.9775 46.2226 41.5074 45.7572 41.94L44.8747 40.9935C45.2658 40.5954 45.5604 39.802 45.8953 38.5391C46.2387 37.2856 46.6033 36.5119 47.0096 36.1689C47.4952 35.759 48.3784 35.5182 49.6895 35.4083C51.0108 35.2903 51.746 35.2077 52.113 34.9405C52.48 34.6733 52.822 33.9484 53.2982 32.7239C53.7745 31.4995 54.2579 30.7265 54.7891 30.3774C55.2336 30.0854 56.0825 29.9594 57.3839 29.9855C58.7031 30.0154 59.5565 29.9595 60.0498 29.6978L60.709 30.8108ZM77.7139 23.4887C77.1044 23.6697 76.5142 23.6552 75.7299 23.5095C75.4848 23.469 74.9375 23.2727 73.9233 23.0109C73.2581 22.8415 72.7907 22.8038 72.5214 22.8985C72.1297 23.0363 71.6524 23.5909 70.8979 24.6932C70.1433 25.7954 69.5797 26.4215 69.009 26.6708C68.4382 26.92 67.5808 26.8938 66.2461 26.7043C64.9231 26.5093 64.1351 26.4978 63.7632 26.6823C63.5075 26.8092 63.2641 27.145 62.9369 27.7475C62.4064 28.7151 62.1761 29.2323 62.0835 29.3856C61.6577 30.0591 61.2564 30.4878 60.709 30.8108L60.0498 29.6978C60.5173 29.3924 60.921 28.723 61.5473 27.5759C62.1796 26.44 62.7103 25.7608 63.1868 25.5244C63.7563 25.2419 64.6636 25.2032 65.9631 25.4092C67.2743 25.6097 68.0735 25.6674 68.4896 25.4857C68.9058 25.3039 69.4073 24.6989 70.1378 23.6064C70.8684 22.514 71.4913 21.8899 72.0912 21.679C72.593 21.5025 73.4398 21.5652 74.6963 21.9045C75.9691 22.2518 76.8025 22.3839 77.3446 22.2494L77.7139 23.4887ZM96.0385 20.2834C95.4039 20.3236 94.8327 20.1608 94.1009 19.8437C93.8711 19.7495 93.2971 19.4504 92.3793 18.9462C91.7768 18.6177 91.3935 18.4826 91.1098 18.5149C90.6972 18.562 90.0459 19.0116 89.0427 19.8944C88.0394 20.7771 87.3462 21.2746 86.7316 21.3763C86.117 21.4779 85.3973 21.227 84.1374 20.7482C82.8901 20.2666 82.1198 20.0572 81.7164 20.1554C81.439 20.223 81.0682 20.5094 80.6037 21.0141C79.8531 21.8235 79.512 22.2919 79.3849 22.4182C78.808 22.9682 78.3235 23.3077 77.7139 23.4887L77.3446 22.2494C77.8723 22.0662 78.4896 21.4973 79.3528 20.5153C80.2193 19.5456 80.8924 19.0252 81.4093 18.8993C82.0271 18.7488 82.8867 18.9171 84.096 19.4347C85.3181 19.9497 86.0717 20.1742 86.5198 20.1001C86.9679 20.026 87.5966 19.5334 88.5742 18.6542C89.5517 17.7751 90.3309 17.3024 90.9627 17.2303C91.4914 17.17 92.304 17.4377 93.4528 18.0487C94.6156 18.6713 95.3981 19.0029 95.9566 18.993L96.0385 20.2834ZM114.605 21.3573C113.978 21.2535 113.459 20.9603 112.818 20.4866C112.615 20.3431 112.123 19.9223 111.343 19.2244C110.83 18.7686 110.488 18.5451 110.204 18.5127C109.792 18.4656 109.056 18.7514 107.88 19.3854C106.703 20.0194 105.916 20.342 105.294 20.3026C104.672 20.2633 103.925 19.8697 102.824 19.092C101.737 18.3148 101.101 17.9543 100.686 17.9595C100.401 17.9631 99.9749 18.159 99.4087 18.5466C98.495 19.1668 98.0585 19.5343 97.9062 19.6289C97.2204 20.0356 96.6732 20.2433 96.0385 20.2834L95.9566 18.993C96.512 18.9324 97.2407 18.5309 98.3026 17.7674C99.365 17.0165 100.138 16.6734 100.67 16.6666C101.306 16.6586 102.104 17.0348 103.166 17.811C104.24 18.5877 104.923 18.983 105.376 19.0116C105.829 19.0403 106.552 18.7079 107.703 18.0716C108.854 17.4353 109.72 17.1559 110.352 17.228C110.88 17.2884 111.611 17.7378 112.592 18.5919C113.584 19.4603 114.271 19.9656 114.817 20.0816L114.605 21.3573ZM132.333 26.6532C131.75 26.3987 131.305 26.0133 130.8 25.3966C130.639 25.2076 130.345 24.7118 129.74 23.8581C129.341 23.3 129.063 22.9867 128.794 22.892C128.402 22.7543 127.626 22.8515 126.337 23.2069C125.048 23.5624 124.212 23.6845 123.614 23.5072C123.017 23.3299 122.379 22.7642 121.482 21.7599C120.597 20.7589 120.002 20.2491 119.598 20.1508C119.321 20.0832 118.919 20.1883 118.28 20.4387C117.25 20.8377 116.742 21.089 116.572 21.1469C115.812 21.3889 115.233 21.461 114.605 21.3573L114.817 20.0816C115.372 20.1477 116.108 19.8886 117.327 19.4139C118.544 18.9516 119.388 18.7687 119.905 18.8946C120.523 19.0451 121.242 19.5938 122.102 20.588C122.975 21.5856 123.549 22.138 123.984 22.2673C124.419 22.3966 125.195 22.2506 126.459 21.8871C127.724 21.5237 128.624 21.4615 129.224 21.6724C129.726 21.8489 130.308 22.4357 131.049 23.5047C131.796 24.5903 132.351 25.222 132.852 25.4685L132.333 26.6532ZM148.469 35.9701C147.955 35.596 147.62 35.0972 147.261 34.386C147.145 34.1667 146.895 33.5701 146.514 32.5962C146.261 31.9587 146.055 31.6033 145.816 31.4466C145.469 31.2187 144.68 31.1429 143.343 31.1768C142.006 31.2106 141.151 31.1439 140.615 30.8274C140.079 30.5109 139.681 29.8572 139.026 28.6807C138.382 27.5103 137.925 26.8581 137.553 26.6736C137.297 26.5467 136.829 26.527 136.148 26.614C135.051 26.7497 134.484 26.8919 134.305 26.9065C133.509 26.9552 132.915 26.9077 132.333 26.6532L132.852 25.4685C133.373 25.6686 134.216 25.6262 135.51 25.4318C136.799 25.2488 137.653 25.2792 138.129 25.5156C138.699 25.7981 139.268 26.515 139.889 27.6733C140.521 28.8377 140.884 29.4831 141.275 29.7139C141.666 29.9447 142.466 29.9732 143.781 29.9256C145.096 29.8781 145.997 30.0175 146.528 30.3666C146.973 30.6587 147.423 31.3892 147.914 32.5928C148.408 33.8142 148.796 34.5767 149.232 34.9254L148.469 35.9701ZM161.95 48.6874C161.539 48.2026 161.32 47.6482 161.14 46.8724C161.079 46.6319 161.043 46.0455 160.878 45.0127C160.768 44.3362 160.616 43.8935 160.422 43.6849C160.139 43.3814 159.378 43.1311 158.071 42.8477C156.764 42.5643 156.02 42.3778 155.564 41.9541C155.108 41.5303 154.792 40.7297 154.436 39.4314C154.09 38.1418 153.79 37.4113 153.473 37.1436C153.255 36.9595 152.851 36.8666 152.167 36.8052C151.067 36.7023 150.501 36.693 150.323 36.6688C149.535 36.545 148.983 36.3442 148.469 35.9701L149.232 34.9254C149.698 35.2332 150.471 35.3437 151.774 35.4635C153.07 35.5931 153.903 35.8132 154.309 36.1562C154.795 36.5661 155.188 37.3856 155.515 38.658C155.851 39.9391 156.114 40.6983 156.446 41.0072C156.779 41.3162 157.533 41.5397 158.827 41.7738C160.122 42.008 160.936 42.3392 161.37 42.8038C161.732 43.1927 162.008 43.999 162.199 45.2843C162.39 46.5878 162.598 47.4107 162.939 47.8525L161.95 48.6874ZM172.15 64.1403C171.867 63.5718 171.773 62.9904 171.783 62.1941C171.781 61.9461 171.873 61.3769 171.958 60.3346C172.012 59.6514 171.999 59.2328 171.854 58.9874C171.642 58.6305 170.982 58.207 169.766 57.6512C168.55 57.0955 167.826 56.6509 167.484 56.1315C167.141 55.612 167.013 54.7685 166.975 53.4231C166.944 52.0884 166.814 51.3166 166.569 50.9816C166.401 50.7513 166.018 50.5745 165.368 50.3535C164.324 49.9938 163.764 49.8603 163.598 49.7948C162.861 49.4886 162.36 49.1722 161.95 48.6874L162.939 47.8525C163.318 48.2616 164.082 48.6062 165.33 49.0004C166.568 49.4027 167.302 49.7905 167.615 50.2197C167.99 50.7326 168.19 51.613 168.206 52.9264C168.229 54.2505 168.317 55.0415 168.566 55.4203C168.816 55.799 169.508 56.1856 170.71 56.7194C171.912 57.2532 172.645 57.7829 172.968 58.3294C173.239 58.7867 173.311 59.6095 173.19 60.9034C173.065 62.2147 173.085 63.0547 173.31 63.5649L172.15 64.1403ZM178.52 81.6092C178.369 80.9925 178.431 80.4006 178.616 79.6259C178.668 79.3835 178.863 78.767 179.2 77.7767C179.419 77.1271 179.486 76.7255 179.404 76.4523C179.286 76.0549 178.728 75.4923 177.682 74.6596C176.637 73.8269 176.024 73.2306 175.817 72.644C175.61 72.0574 175.724 71.3054 175.979 69.9837C176.239 68.6741 176.307 67.8816 176.141 67.5017C176.026 67.2406 175.68 66.9252 175.102 66.5554C174.174 65.9565 173.647 65.7024 173.5 65.5991C172.859 65.1261 172.433 64.7089 172.15 64.1403L173.31 63.5649C173.581 64.0525 174.256 64.5604 175.373 65.2408C176.478 65.9265 177.114 66.4968 177.327 66.9835C177.582 67.5651 177.558 68.4793 177.288 69.7649C177.024 71.0626 176.888 71.7866 177.039 72.2143C177.19 72.642 177.787 73.1752 178.824 73.9832C179.861 74.7913 180.464 75.4752 180.646 76.0837C180.797 76.5928 180.675 77.439 180.273 78.675C179.862 79.9269 179.67 80.7555 179.778 81.3027L178.52 81.6092ZM180.655 100.057C180.647 99.4218 180.829 98.7522 181.201 98.0478C181.312 97.8261 181.642 97.3652 182.193 96.4756C182.552 95.8915 182.722 95.5155 182.704 95.2311C182.677 94.8173 182.276 94.1443 181.444 93.0994C180.611 92.0546 180.165 91.3371 180.094 90.7192C180.024 90.1013 180.29 89.2955 180.863 88.0773C181.438 86.8719 181.67 86.1266 181.602 85.7176C181.555 85.4364 181.297 85.1092 180.815 84.6209C180.043 83.8319 179.609 83.4653 179.489 83.3323C178.968 82.7296 178.67 82.226 178.52 81.6092L179.778 81.3027C179.935 81.8379 180.455 82.4855 181.395 83.3952C182.322 84.3076 182.793 84.9822 182.88 85.5062C182.984 86.1325 182.765 87.0075 182.186 88.1872C181.609 89.3798 181.33 90.1217 181.382 90.5723C181.433 91.0228 181.878 91.6758 182.708 92.6948C183.538 93.7139 183.956 94.5157 183.996 95.1493C184.03 95.6794 183.705 96.4768 183.036 97.5913C182.355 98.7192 181.968 99.4829 181.95 100.04L180.655 100.057Z" fill="#FFFEE9"/>
<path d="M162.282 114.712C162.403 114.219 162.641 113.816 163.058 113.334C163.185 113.181 163.532 112.882 164.122 112.287C164.507 111.897 164.713 111.635 164.751 111.41C164.805 111.083 164.619 110.486 164.159 109.522C163.699 108.558 163.485 107.919 163.542 107.424C163.599 106.93 163.956 106.351 164.623 105.504C165.289 104.668 165.61 104.13 165.631 103.799C165.645 103.571 165.509 103.271 165.221 102.803C164.762 102.049 164.497 101.687 164.427 101.561C164.129 100.998 163.984 100.462 163.99 99.9543L165.027 99.9674C165.041 100.413 165.35 101.019 165.896 101.911C166.432 102.802 166.692 103.44 166.665 103.864C166.632 104.371 166.299 105.013 165.635 105.828C164.97 106.654 164.613 107.181 164.572 107.542C164.531 107.902 164.755 108.491 165.218 109.435C165.68 110.378 165.856 111.078 165.773 111.579C165.703 111.998 165.327 112.538 164.586 113.268C163.832 114.006 163.415 114.529 163.289 114.957L162.282 114.712ZM157.187 128.687C157.413 128.232 157.754 127.899 158.267 127.52C158.425 127.399 158.847 127.19 159.554 126.741C160.017 126.445 160.294 126.193 160.385 125.984C160.519 125.68 160.464 125.046 160.256 123.998C160.048 122.95 159.954 122.354 160.12 121.884C160.286 121.415 160.778 120.933 161.617 120.257C162.454 119.591 162.9 119.141 162.994 118.823C163.06 118.604 163.006 118.283 162.831 117.763C162.553 116.925 162.395 116.437 162.359 116.299C162.211 115.679 162.162 115.206 162.282 114.712L163.289 114.957C163.203 115.395 163.358 116.053 163.689 117.044C164.01 118.033 164.109 118.71 163.988 119.118C163.843 119.604 163.361 120.152 162.531 120.798C161.698 121.455 161.218 121.886 161.098 122.228C160.977 122.57 161.088 123.145 161.303 124.173C161.519 125.202 161.539 125.933 161.335 126.398C161.164 126.788 160.656 127.244 159.771 127.793C158.873 128.346 158.332 128.758 158.115 129.148L157.187 128.687ZM149.026 141.05C149.355 140.662 149.756 140.409 150.345 140.164C150.527 140.084 150.977 139.971 151.771 139.704C152.291 139.527 152.596 139.386 152.731 139.202C152.927 138.934 153.031 138.316 153.056 137.248C153.08 136.18 153.18 135.51 153.454 135.094C153.728 134.679 154.309 134.319 155.288 133.865C156.26 133.421 156.788 133.082 156.957 132.796C157.074 132.6 157.084 132.265 157.041 131.718C156.975 130.838 156.898 130.387 156.893 130.244C156.885 129.607 156.96 129.142 157.187 128.687L158.115 129.148C157.934 129.556 157.921 130.223 158.026 131.263C158.123 132.298 158.066 132.957 157.849 133.322C157.591 133.76 157.004 134.184 156.043 134.611C155.075 135.047 154.519 135.36 154.32 135.663C154.12 135.966 154.053 136.595 154.04 137.646C154.028 138.697 153.868 139.401 153.568 139.811C153.317 140.154 152.731 140.465 151.74 140.787C150.736 141.11 150.121 141.39 149.818 141.718L149.026 141.05ZM138.242 151.223C138.653 150.924 139.095 150.764 139.725 150.665C139.921 150.63 140.378 150.618 141.213 150.545C141.76 150.496 142.083 150.422 142.257 150.275C142.511 150.06 142.751 149.476 143.028 148.444C143.304 147.412 143.553 146.775 143.918 146.436C144.282 146.097 144.882 145.944 145.935 145.71C146.98 145.483 147.588 145.283 147.815 145.04C147.97 144.873 148.092 144.519 148.18 143.978C148.325 143.107 148.349 142.642 148.378 142.502C148.522 141.881 148.698 141.437 149.026 141.05L149.818 141.718C149.545 142.071 149.382 142.725 149.236 143.76C149.083 144.789 148.863 145.434 148.573 145.745C148.226 146.117 147.575 146.383 146.539 146.57C145.496 146.764 144.89 146.947 144.624 147.194C144.358 147.441 144.151 148.045 143.89 149.063C143.629 150.081 143.315 150.737 142.926 151.064C142.601 151.339 141.935 151.515 140.899 151.619C139.848 151.721 139.225 151.813 138.852 152.059L138.242 151.223ZM125.333 158.677C125.799 158.473 126.274 158.435 126.911 158.474C127.11 158.483 127.568 158.593 128.399 158.701C128.944 158.771 129.319 158.755 129.523 158.654C129.821 158.506 130.187 157.984 130.701 157.048C131.216 156.111 131.53 155.591 131.959 155.338C132.388 155.084 133.076 155.028 134.154 155.05C135.224 155.077 135.855 155.016 136.133 154.834C136.324 154.708 136.489 154.424 136.691 153.914C137.019 153.094 137.213 152.62 137.275 152.491C137.562 151.922 137.831 151.523 138.242 151.223L138.852 152.059C138.503 152.338 138.197 152.945 137.811 153.916C137.418 154.879 137.058 155.464 136.702 155.698C136.278 155.977 135.556 156.089 134.505 156.051C133.444 156.018 132.799 156.044 132.486 156.228C132.173 156.413 131.888 156.927 131.391 157.854C130.895 158.78 130.44 159.354 129.984 159.58C129.603 159.769 128.92 159.794 127.889 159.647C126.845 159.496 126.165 159.465 125.748 159.625L125.333 158.677ZM111.151 162.914C111.653 162.831 112.117 162.888 112.725 163.082C112.915 163.139 113.327 163.337 114.106 163.645C114.617 163.846 114.939 163.929 115.161 163.875C115.483 163.797 115.959 163.388 116.667 162.588C117.375 161.787 117.881 161.336 118.358 161.194C118.836 161.052 119.51 161.148 120.551 161.429C121.582 161.713 122.203 161.791 122.517 161.681C122.732 161.605 122.954 161.354 123.273 160.907C123.789 160.191 124.018 159.795 124.107 159.682C124.51 159.189 124.867 158.881 125.333 158.677L125.748 159.625C125.347 159.822 124.908 160.325 124.32 161.19C123.728 162.045 123.262 162.515 122.861 162.656C122.381 162.825 121.66 162.776 120.649 162.485C119.627 162.198 119.002 162.082 118.654 162.186C118.305 162.289 117.851 162.73 117.163 163.525C116.475 164.321 115.901 164.76 115.406 164.88C114.993 164.981 114.317 164.835 113.344 164.465C112.359 164.088 111.764 163.881 111.32 163.934L111.151 162.914ZM96.2975 163.773C96.8052 163.805 97.243 163.971 97.7916 164.296C97.9645 164.394 98.3198 164.687 99.0094 165.163C99.4624 165.473 99.7564 165.635 99.9848 165.632C100.317 165.628 100.872 165.347 101.742 164.725C102.612 164.104 103.205 163.789 103.702 163.757C104.199 163.726 104.834 163.984 105.786 164.49C106.728 164.997 107.316 165.225 107.646 165.188C107.873 165.162 108.147 164.982 108.557 164.618C109.219 164.034 109.607 163.698 109.721 163.61C110.234 163.231 110.649 162.997 111.151 162.914L111.32 163.934C110.883 164.027 110.339 164.431 109.556 165.124C108.771 165.807 108.187 166.167 107.764 166.215C107.258 166.273 106.565 166.05 105.645 165.541C104.713 165.033 104.13 164.767 103.767 164.79C103.405 164.813 102.864 165.129 102.015 165.75C101.165 166.371 100.507 166.66 99.9979 166.666C99.5722 166.672 98.9744 166.387 98.1245 165.786C97.2646 165.175 96.6762 164.854 96.2319 164.805L96.2975 163.773ZM81.6378 161.209C82.1254 161.353 82.513 161.625 82.9746 162.065C83.1211 162.199 83.4 162.574 83.965 163.192C84.3365 163.596 84.6332 163.825 84.8551 163.879C85.1778 163.958 85.7942 163.79 86.792 163.404C87.7898 163.019 88.3603 162.817 88.8519 162.899C89.3436 162.98 89.9035 163.379 90.7164 164.086C91.519 164.792 92.0401 165.152 92.3702 165.189C92.5971 165.215 92.9038 165.107 93.3858 164.844C94.1632 164.424 94.617 164.184 94.7474 164.125C95.3328 163.871 95.7897 163.741 96.2975 163.773L96.2319 164.805C95.7851 164.797 95.1645 165.063 94.2446 165.562C93.3255 166.051 92.6754 166.265 92.2525 166.217C91.7471 166.159 91.1232 165.782 90.3412 165.078C89.5488 164.374 89.041 163.979 88.6825 163.92C88.324 163.86 87.726 164.041 86.7585 164.455C85.7911 164.869 85.1037 165.004 84.6094 164.884C84.1959 164.783 83.6573 164.367 82.9641 163.591C82.2635 162.803 81.7645 162.347 81.3423 162.2L81.6378 161.209ZM68.0338 155.351C68.4717 155.609 68.7928 155.952 69.1335 156.491C69.2429 156.657 69.433 157.072 69.8301 157.809C70.0919 158.291 70.2868 158.559 70.4913 158.661C70.7888 158.808 71.4194 158.799 72.4778 158.643C73.5362 158.487 74.2172 158.464 74.6738 158.663C75.1304 158.862 75.5863 159.365 76.1996 160.251C76.8032 161.133 77.1853 161.576 77.4987 161.686C77.7141 161.762 78.088 161.732 78.6202 161.596C79.4775 161.381 79.9101 161.221 80.0506 161.192C80.678 161.075 81.1502 161.064 81.6378 161.209L81.3423 162.2C80.9086 162.092 80.2471 162.2 79.2387 162.481C78.2335 162.752 77.556 162.803 77.1545 162.662C76.6746 162.493 76.1756 161.994 75.5911 161.12C74.9971 160.242 74.5913 159.756 74.2583 159.611C73.9254 159.466 73.2906 159.514 72.251 159.679C71.2114 159.843 70.4858 159.813 70.0302 159.587C69.649 159.398 69.2243 158.855 68.7185 157.946C68.2082 157.024 67.8805 156.486 67.5065 156.241L68.0338 155.351ZM56.0724 146.448C56.4447 146.794 56.6679 147.218 56.8849 147.817C56.9563 148.002 57.0365 148.469 57.2659 149.273C57.4179 149.8 57.581 150.137 57.7554 150.285C58.0091 150.499 58.6333 150.63 59.6983 150.731C60.7634 150.832 61.3652 150.918 61.7678 151.211C62.1705 151.504 62.4938 152.115 62.9004 153.112C63.2985 154.103 63.6033 154.66 63.8808 154.842C64.0716 154.968 64.3977 155.008 64.9467 154.991C65.8303 154.968 66.3436 154.959 66.487 154.965C67.124 155.003 67.5959 155.092 68.0338 155.351L67.5065 156.241C67.1118 156.032 66.4337 155.99 65.3872 156.02C64.346 156.04 63.6667 155.94 63.3111 155.706C62.8862 155.427 62.4988 154.809 62.1178 153.829C61.7283 152.844 61.4506 152.261 61.157 152.047C60.8634 151.833 60.2791 151.77 59.2302 151.683C58.1813 151.595 57.4749 151.403 57.0864 151.075C56.7613 150.8 56.4694 150.182 56.1947 149.179C55.919 148.162 55.6793 147.523 55.3664 147.205L56.0724 146.448ZM46.5337 135.103C46.8134 135.527 46.9392 135.985 47.0081 136.618C47.0335 136.815 47.0104 137.28 47.0426 138.116C47.0655 138.664 47.144 139.03 47.2786 139.214C47.4744 139.482 48.0132 139.721 49.0323 140.046C50.0513 140.371 50.664 140.66 50.9858 141.04C51.3076 141.42 51.4863 142.082 51.645 143.147C51.7968 144.204 51.9701 144.809 52.1965 145.052C52.3521 145.219 52.6685 145.327 53.2058 145.441C54.0697 145.627 54.5229 145.684 54.6617 145.72C55.2758 145.894 55.7 146.102 56.0724 146.448L55.3664 147.205C55.0257 146.916 54.4133 146.763 53.3896 146.544C52.3732 146.318 51.7281 146.068 51.4381 145.757C51.0914 145.385 50.8528 144.7 50.7147 143.659C50.5698 142.609 50.4289 141.985 50.1942 141.708C49.9596 141.431 49.3778 141.186 48.3718 140.876C47.3657 140.567 46.7412 140.234 46.4415 139.824C46.1906 139.481 46.0439 138.817 46.0147 137.778C45.9879 136.725 45.8967 136.055 45.6682 135.672L46.5337 135.103ZM39.8659 121.889C40.0349 122.369 40.061 122.835 39.9753 123.466C39.9526 123.664 39.8316 124.103 39.662 124.922C39.5526 125.459 39.5298 125.789 39.6213 125.998C39.7545 126.302 40.2444 126.699 41.1562 127.257C42.0679 127.816 42.6055 128.235 42.8273 128.68C43.0491 129.126 43.0759 129.804 42.9761 130.876C42.8716 131.939 42.8819 132.524 43.0509 132.81C43.1672 133.006 43.4729 133.223 43.9678 133.461C44.7628 133.846 45.1997 134.002 45.326 134.07C45.8815 134.383 46.254 134.679 46.5337 135.103L45.6682 135.672C45.4057 135.31 44.827 134.968 43.8739 134.535C42.9294 134.097 42.3756 133.702 42.159 133.336C41.9001 132.899 41.8363 132.197 41.9506 131.152C42.06 130.099 42.0607 129.466 41.899 129.141C41.7373 128.816 41.2191 128.446 40.3161 127.906C39.4131 127.366 38.8759 126.878 38.672 126.413C38.5014 126.023 38.5247 125.335 38.7216 124.314C38.9239 123.28 39.0177 122.66 38.8885 122.233L39.8659 121.889ZM36.443 107.426C36.5008 107.931 36.4063 108.391 36.1821 108.988C36.116 109.175 35.883 109.577 35.5355 110.339C35.3095 110.838 35.2149 111.201 35.2522 111.426C35.3065 111.753 35.7059 112.252 36.4527 113.017C37.1996 113.781 37.6148 114.225 37.733 114.709C37.8511 115.192 37.707 115.862 37.3741 116.887C37.0384 117.901 36.9157 118.52 37.0104 118.838C37.0755 119.056 37.301 119.295 37.732 119.635C38.4235 120.184 38.8223 120.507 38.9284 120.603C39.3915 121.042 39.6968 121.41 39.8659 121.889L38.8885 122.233C38.7211 121.819 38.2269 121.354 37.4067 120.705C36.5962 120.052 36.1386 119.54 36.0173 119.133C35.8722 118.646 35.9717 117.926 36.3128 116.931C36.6511 115.927 36.8121 115.306 36.7259 114.954C36.6398 114.601 36.2359 114.124 35.4745 113.398C34.7132 112.672 34.3132 112.096 34.23 111.595C34.1604 111.175 34.329 110.518 34.7716 109.577C35.2229 108.625 35.444 107.989 35.4135 107.543L36.443 107.426ZM36.443 92.5734C36.3852 93.078 36.1846 93.505 35.8313 94.0356C35.7246 94.2031 35.4019 94.5416 34.8914 95.2052C34.5583 95.6411 34.3843 95.9728 34.3698 96.2004C34.3488 96.5314 34.6196 97.107 35.1746 98.0201C35.7296 98.9331 36.0316 99.5478 36.0253 100.045C36.019 100.543 35.7299 101.072 35.1752 101.995C34.6202 102.908 34.3498 103.484 34.3708 103.815C34.3853 104.042 34.5593 104.374 34.8924 104.81C35.4258 105.514 35.7495 105.846 35.8313 105.964C36.1846 106.494 36.3852 106.921 36.443 107.426L35.4135 107.543C35.3426 107.103 34.9795 106.539 34.3254 105.723C33.6815 104.906 33.3637 104.304 33.3368 103.88C33.3046 103.373 33.5751 102.693 34.1309 101.801C34.6864 100.898 34.9842 100.395 34.9888 100.032C34.9934 99.6695 34.6862 99.1061 34.1304 98.2137C33.5746 97.3213 33.3036 96.6419 33.3358 96.135C33.3627 95.7109 33.6801 95.1092 34.324 94.2922C34.979 93.4657 35.3426 92.8964 35.4135 92.4559L36.443 92.5734ZM39.8659 78.1099C39.6968 78.589 39.3915 78.9576 38.9284 79.396C38.787 79.5354 38.3865 79.8634 37.7271 80.3799C37.2961 80.7197 37.071 80.9582 37.0059 81.1768C36.9112 81.4947 37.0343 82.1138 37.3699 83.128C37.7056 84.1421 37.8511 84.8075 37.733 85.2909C37.6148 85.7742 37.1985 86.2232 36.4498 86.9982C35.7029 87.7629 35.3039 88.2622 35.2496 88.5894C35.2123 88.8144 35.3069 89.1767 35.533 89.6764C35.8936 90.482 36.1289 90.8785 36.1821 91.0115C36.4063 91.608 36.5008 92.0688 36.443 92.5734L35.4135 92.4559C35.444 92.0108 35.2222 91.3801 34.7695 90.4377C34.3268 89.4967 34.1578 88.8396 34.2274 88.4203C34.3106 87.9193 34.7099 87.3419 35.4713 86.6163C36.2349 85.8806 36.6398 85.398 36.7259 85.0455C36.8121 84.6931 36.6498 84.0769 36.3088 83.0828C35.9677 82.0887 35.8677 81.3687 36.0128 80.8819C36.1341 80.4745 36.5913 79.9625 37.4018 79.3098C38.2252 78.6504 38.7211 78.1799 38.8885 77.7663L39.8659 78.1099ZM46.5337 64.8965C46.254 65.3207 45.8815 65.6159 45.326 65.9296C45.1549 66.0307 44.7162 66.1921 43.9598 66.5524C43.4649 66.7902 43.1591 67.007 43.0429 67.2033C42.8738 67.4888 42.8642 68.0741 42.9688 69.1371C43.0733 70.2 43.0491 70.8734 42.8273 71.3189C42.6055 71.7645 42.0656 72.1881 41.1495 72.7562C40.2377 73.315 39.7481 73.7117 39.615 74.0156C39.5234 74.2245 39.5466 74.5547 39.656 75.092C39.8287 75.9574 39.9531 76.3914 39.9753 76.5329C40.061 77.1642 40.0349 77.6309 39.8659 78.1099L38.8885 77.7663C39.0177 77.3391 38.9219 76.7242 38.7156 75.6995C38.5187 74.6787 38.4951 73.9904 38.6657 73.601C38.8696 73.1357 39.4066 72.647 40.3096 72.107C41.2169 71.5576 41.7373 71.1833 41.899 70.8584C42.0607 70.5335 42.0577 69.9051 41.9434 68.8605C41.8291 67.8159 41.8921 67.1141 42.151 66.6769C42.3676 66.3111 42.921 65.9153 43.8655 65.4776C44.8242 65.0364 45.4057 64.6889 45.6682 64.3278L46.5337 64.8965ZM56.0724 53.5518C55.7 53.8978 55.2758 54.1058 54.6617 54.2791C54.4716 54.3369 54.0151 54.3992 53.1947 54.5701C52.6575 54.6838 52.3414 54.7923 52.1857 54.9592C51.9593 55.202 51.7863 55.8072 51.6345 56.8644C51.4827 57.9217 51.3076 58.5798 50.9858 58.9597C50.664 59.3396 50.048 59.6323 49.0224 59.9656C48.0033 60.2908 47.4651 60.5298 47.2693 60.7978C47.1347 60.982 47.0562 61.3482 47.0332 61.896C46.9929 62.7775 47.0207 63.2388 47.0081 63.3815C46.9392 64.0149 46.8134 64.4723 46.5337 64.8965L45.6682 64.3278C45.8966 63.9443 45.9848 63.279 46.0057 62.2341C46.0349 61.1949 46.1813 60.5316 46.4322 60.1883C46.7319 59.7779 47.3561 59.4439 48.3621 59.1348C49.3747 58.8177 49.9596 58.5685 50.1942 58.2915C50.4289 58.0145 50.5665 57.394 50.7045 56.3522C50.8426 55.3105 51.0807 54.6262 51.4273 54.2544C51.7174 53.9434 52.3622 53.6931 53.3786 53.467C54.4096 53.2406 55.0257 53.0835 55.3664 52.7946L56.0724 53.5518ZM68.0338 44.6485C67.5959 44.907 67.124 44.9964 66.487 45.0346C66.2888 45.0505 65.7709 45.0444 64.9333 45.0163C64.3843 44.9997 64.0584 45.0404 63.8676 45.1658C63.5901 45.3481 63.2855 45.9049 62.8874 46.8963C62.4893 47.8877 62.1705 48.4952 61.7678 48.7883C61.3652 49.0815 60.7592 49.1711 59.686 49.2785C58.6209 49.3794 57.997 49.5107 57.7433 49.7248C57.5689 49.8721 57.4347 50.17 57.2953 50.7003C57.0677 51.553 56.9309 52.047 56.8849 52.1827C56.6679 52.7818 56.4447 53.2057 56.0724 53.5518L55.3664 52.7946C55.6793 52.4761 55.915 51.8414 56.1829 50.8311C56.4576 49.8283 56.7492 49.2093 57.0743 48.935C57.4628 48.607 58.1694 48.4143 59.2183 48.3264C60.2753 48.232 60.8634 48.166 61.157 47.9522C61.4506 47.7385 61.7242 47.1585 62.1052 46.179C62.4862 45.1994 62.873 44.581 63.2979 44.3017C63.6535 44.0681 64.3326 43.9674 65.3738 43.9882C66.4291 44.0121 67.1118 43.9674 67.5065 43.758L68.0338 44.6485ZM81.6378 38.7908C81.1502 38.9356 80.678 38.924 80.0506 38.8074C79.8545 38.775 79.4167 38.6179 78.6053 38.4085C78.0731 38.273 77.6992 38.2429 77.4838 38.3186C77.1704 38.4288 76.7886 38.8725 76.1849 39.7543C75.5813 40.6361 75.1304 41.137 74.6738 41.3364C74.2172 41.5358 73.5313 41.5148 72.4635 41.3632C71.4051 41.2072 70.7747 41.198 70.4772 41.3457C70.2726 41.4471 70.0779 41.7158 69.8162 42.1978C69.3918 42.9719 69.2075 43.3856 69.1335 43.5083C68.7928 44.047 68.4717 44.39 68.0338 44.6485L67.5065 43.758C67.8805 43.5137 68.2034 42.9782 68.7045 42.0605C69.2103 41.1518 69.6349 40.6084 70.0161 40.4193C70.4717 40.1933 71.1975 40.1624 72.2371 40.3272C73.2861 40.4875 73.9254 40.5337 74.2583 40.3883C74.5913 40.2429 74.9924 39.7589 75.5769 38.8849C76.1613 38.011 76.6597 37.5117 77.1396 37.343C77.5411 37.2018 78.2185 37.2519 79.2237 37.5234C80.2419 37.8013 80.9086 37.907 81.3423 37.7993L81.6378 38.7908ZM96.2975 36.2265C95.7897 36.2587 95.3328 36.1284 94.7474 35.8748C94.5635 35.7994 94.1043 35.5601 93.3701 35.1567C92.8881 34.894 92.5814 34.7859 92.3545 34.8117C92.0244 34.8494 91.5034 35.2091 90.7008 35.9153C89.8982 36.6215 89.3436 37.0195 88.8519 37.1008C88.3603 37.1821 87.7845 36.9814 86.7765 36.5983C85.7787 36.2131 85.1625 36.0455 84.8397 36.1242C84.6178 36.1782 84.3212 36.4073 83.9496 36.8111C83.3491 37.4586 83.0763 37.8334 82.9746 37.9344C82.513 38.3743 82.1254 38.646 81.6378 38.7908L81.3423 37.7993C81.7645 37.6528 82.2583 37.1976 82.9489 36.4121C83.6421 35.6363 84.1805 35.22 84.5941 35.1192C85.0883 34.9988 85.776 35.1335 86.7435 35.5475C87.7211 35.9596 88.324 36.1392 88.6825 36.0799C89.041 36.0206 89.5439 35.6265 90.326 34.9232C91.108 34.2199 91.7313 33.8417 92.2368 33.784C92.6597 33.7358 93.3098 33.95 94.2289 34.4388C95.1591 34.9368 95.7851 35.2021 96.2319 35.1942L96.2975 36.2265ZM111.151 37.0856C110.649 37.0026 110.234 36.768 109.721 36.3891C109.559 36.2742 109.165 35.9377 108.541 35.3793C108.131 35.0147 107.857 34.8359 107.63 34.81C107.3 34.7723 106.712 35.0009 105.77 35.5081C104.829 36.0153 104.199 36.2734 103.702 36.2419C103.205 36.2104 102.606 35.8956 101.726 35.2734C100.856 34.6516 100.348 34.3632 100.016 34.3674C99.7872 34.3703 99.4466 34.527 98.9936 34.8371C98.2627 35.3333 97.9134 35.6273 97.7916 35.703C97.243 36.0283 96.8052 36.1944 96.2975 36.2265L96.2319 35.1942C96.6762 35.1457 97.2592 34.8245 98.1087 34.2137C98.9586 33.613 99.5768 33.3385 100.002 33.3331C100.511 33.3267 101.15 33.6276 101.999 34.2486C102.859 34.87 103.405 35.1862 103.767 35.2091C104.13 35.2321 104.709 34.9661 105.629 34.4571C106.55 33.9481 107.242 33.7246 107.748 33.7822C108.171 33.8305 108.755 34.1901 109.54 34.8733C110.334 35.568 110.883 35.9723 111.32 36.0651L111.151 37.0856ZM125.333 41.3223C124.867 41.1188 124.51 40.8105 124.107 40.3171C123.978 40.1659 123.743 39.7693 123.258 39.0863C122.94 38.6398 122.717 38.3892 122.502 38.3134C122.188 38.2032 121.567 38.281 120.536 38.5654C119.505 38.8497 118.836 38.9474 118.358 38.8056C117.881 38.6637 117.37 38.2112 116.652 37.4077C115.944 36.6069 115.468 36.1991 115.145 36.1204C114.923 36.0664 114.602 36.1504 114.09 36.3508C113.266 36.67 112.86 36.871 112.725 36.9174C112.117 37.1109 111.653 37.1686 111.151 37.0856L111.32 36.0651C111.764 36.1179 112.353 35.9107 113.329 35.5309C114.302 35.1611 114.977 35.0148 115.391 35.1155C115.885 35.2359 116.461 35.6748 117.149 36.4702C117.846 37.2683 118.305 37.7102 118.654 37.8137C119.002 37.9171 119.622 37.8003 120.634 37.5095C121.645 37.2188 122.366 37.169 122.846 37.3377C123.247 37.4789 123.713 37.9484 124.306 38.8036C124.903 39.672 125.347 40.1774 125.748 40.3746L125.333 41.3223ZM138.242 48.7759C137.831 48.4766 137.562 48.0776 137.275 47.5086C137.182 47.3332 136.983 46.8559 136.678 46.0767C136.476 45.5668 136.31 45.2825 136.12 45.1571C135.842 44.9748 135.21 44.9142 134.141 44.9412C133.071 44.9683 132.388 44.9149 131.959 44.6617C131.53 44.4085 131.211 43.8855 130.687 42.9444C130.173 42.008 129.807 41.4863 129.509 41.3386C129.305 41.2372 128.93 41.2214 128.385 41.291C127.508 41.3995 127.054 41.5133 126.911 41.525C126.274 41.564 125.799 41.5259 125.333 41.3223L125.748 40.3746C126.165 40.5347 126.84 40.5008 127.875 40.3452C128.906 40.1989 129.589 40.2232 129.97 40.4123C130.426 40.6383 130.881 41.2118 131.378 42.1385C131.883 43.07 132.173 43.5863 132.486 43.7709C132.799 43.9556 133.44 43.9784 134.492 43.9403C135.543 43.9023 136.264 44.0138 136.689 44.2931C137.045 44.5267 137.405 45.1111 137.798 46.074C138.193 47.0512 138.503 47.6611 138.852 47.9402L138.242 48.7759ZM149.026 58.9497C148.698 58.5619 148.522 58.1183 148.378 57.4977C148.33 57.3053 148.301 56.8362 148.169 56.01C148.081 55.4688 147.96 55.1146 147.804 54.9477C147.578 54.7049 146.969 54.5047 145.924 54.278C144.878 54.0512 144.282 53.902 143.918 53.5631C143.553 53.2241 143.3 52.5836 143.016 51.545C142.739 50.5132 142.499 49.9288 142.245 49.7147C142.071 49.5674 141.747 49.4931 141.2 49.444C140.32 49.3616 139.867 49.3542 139.725 49.3349C139.095 49.2358 138.653 49.0752 138.242 48.7759L138.852 47.9402C139.225 48.1864 139.844 48.2748 140.886 48.3706C141.922 48.4743 142.589 48.6504 142.914 48.9248C143.303 49.2527 143.617 49.9083 143.878 50.9262C144.147 51.9511 144.358 52.5584 144.624 52.8056C144.89 53.0528 145.493 53.2315 146.528 53.4189C147.564 53.6062 148.216 53.8711 148.562 54.2429C148.852 54.5539 149.073 55.199 149.226 56.2272C149.379 57.27 149.545 57.9284 149.818 58.2818L149.026 58.9497ZM157.187 71.3121C156.96 70.8573 156.885 70.3921 156.893 69.7551C156.891 69.5567 156.965 69.1013 157.033 68.2675C157.077 67.7209 157.066 67.386 156.949 67.1898C156.78 66.9042 156.252 66.5654 155.279 66.1208C154.306 65.6762 153.728 65.3206 153.454 64.905C153.18 64.4894 153.077 63.8146 153.047 62.7383C153.022 61.6705 152.918 61.0531 152.722 60.7851C152.587 60.6008 152.281 60.4594 151.761 60.2826C150.926 59.9949 150.478 59.888 150.345 59.8357C149.756 59.5907 149.355 59.3376 149.026 58.9497L149.818 58.2818C150.121 58.6091 150.732 58.8847 151.731 59.2002C152.721 59.5219 153.308 59.8322 153.559 60.1755C153.859 60.5859 154.019 61.2902 154.031 62.3409C154.05 63.4002 154.12 64.033 154.32 64.336C154.519 64.639 155.073 64.9483 156.035 65.3753C156.996 65.8023 157.582 66.2261 157.841 66.6633C158.058 67.0292 158.115 67.6874 158.019 68.7225C157.919 69.7716 157.934 70.4436 158.115 70.8518L157.187 71.3121ZM162.282 85.2872C162.162 84.7938 162.211 84.3203 162.359 83.7006C162.401 83.5066 162.557 83.0134 162.827 82.2212C163.002 81.7015 163.055 81.3802 162.99 81.1617C162.895 80.8438 162.449 80.3937 161.613 79.7275C160.776 79.0614 160.286 78.5843 160.12 78.115C159.954 77.6458 160.046 77.0441 160.25 75.9868C160.458 74.9391 160.512 74.3051 160.379 74.0012C160.288 73.7923 160.01 73.54 159.548 73.2441C158.806 72.765 158.384 72.5618 158.267 72.4791C157.754 72.1007 157.413 71.7669 157.187 71.3121L158.115 70.8518C158.332 71.2419 158.871 71.6482 159.765 72.1924C160.649 72.741 161.158 73.1973 161.328 73.5866C161.532 74.0519 161.513 74.7832 161.297 75.8117C161.086 76.8499 160.977 77.4291 161.098 77.7712C161.218 78.1134 161.696 78.54 162.526 79.1864C163.356 79.8328 163.838 80.3799 163.983 80.8668C164.104 81.2741 164.006 81.951 163.685 82.9398C163.356 83.9413 163.203 84.6042 163.289 85.042L162.282 85.2872ZM163.99 100.045C163.984 99.5373 164.129 99.0016 164.427 98.4381C164.516 98.2607 164.78 97.892 165.221 97.1803C165.508 96.713 165.644 96.4122 165.63 96.1847C165.609 95.8536 165.288 95.3152 164.622 94.4794C163.956 93.6435 163.599 93.0695 163.542 92.5752C163.485 92.0809 163.698 91.4363 164.157 90.4617C164.617 89.4973 164.802 88.9011 164.748 88.5739C164.711 88.3489 164.504 88.0872 164.119 87.6965C163.501 87.0653 163.154 86.7721 163.058 86.6656C162.641 86.1835 162.403 85.7806 162.282 85.2872L163.289 85.042C163.415 85.4702 163.831 85.9882 164.582 86.716C165.324 87.4459 165.701 87.9855 165.77 88.4048C165.854 88.9059 165.678 89.6058 165.215 90.5496C164.754 91.5037 164.531 92.0972 164.572 92.4576C164.613 92.8181 164.969 93.3405 165.633 94.1557C166.297 94.9709 166.631 95.6124 166.664 96.1193C166.691 96.5434 166.431 97.1813 165.896 98.0729C165.35 98.9752 165.041 99.5861 165.027 100.032L163.99 100.045Z" fill="#FFFEE9"/>
<path d="M146.712 111.034C146.802 110.664 146.981 110.362 147.294 110.001C147.389 109.886 147.649 109.661 148.092 109.216C148.381 108.923 148.535 108.726 148.563 108.558C148.604 108.312 148.464 107.865 148.119 107.142C147.774 106.419 147.614 105.939 147.657 105.568C147.699 105.198 147.967 104.763 148.467 104.128C148.967 103.502 149.207 103.098 149.223 102.849C149.234 102.679 149.132 102.453 148.916 102.103C148.572 101.537 148.373 101.265 148.32 101.171C148.097 100.749 147.988 100.347 147.993 99.9659L148.77 99.9758C148.781 100.31 149.013 100.764 149.422 101.433C149.824 102.102 150.019 102.58 149.999 102.899C149.974 103.279 149.724 103.76 149.226 104.372C148.727 104.991 148.46 105.386 148.429 105.657C148.398 105.927 148.566 106.368 148.913 107.076C149.26 107.784 149.392 108.309 149.33 108.685C149.278 108.999 148.996 109.404 148.439 109.951C147.874 110.505 147.561 110.897 147.467 111.218L146.712 111.034ZM142.89 121.516C143.06 121.175 143.315 120.924 143.7 120.64C143.818 120.55 144.136 120.393 144.666 120.056C145.013 119.834 145.221 119.645 145.289 119.488C145.389 119.26 145.348 118.785 145.192 117.999C145.036 117.213 144.966 116.765 145.09 116.414C145.214 116.062 145.584 115.7 146.213 115.193C146.84 114.693 147.175 114.356 147.246 114.117C147.295 113.953 147.254 113.712 147.123 113.322C146.914 112.694 146.797 112.328 146.77 112.224C146.659 111.76 146.621 111.404 146.712 111.034L147.467 111.218C147.402 111.547 147.518 112.04 147.767 112.783C148.008 113.525 148.082 114.033 147.991 114.338C147.882 114.703 147.521 115.114 146.898 115.599C146.273 116.091 145.914 116.415 145.823 116.671C145.733 116.928 145.816 117.359 145.978 118.13C146.139 118.902 146.154 119.45 146.001 119.799C145.873 120.091 145.492 120.433 144.829 120.845C144.155 121.26 143.749 121.568 143.586 121.861L142.89 121.516ZM136.77 130.787C137.016 130.497 137.317 130.307 137.759 130.123C137.895 130.063 138.233 129.979 138.828 129.778C139.218 129.646 139.447 129.54 139.548 129.401C139.695 129.2 139.773 128.737 139.792 127.936C139.81 127.135 139.885 126.633 140.09 126.321C140.296 126.009 140.732 125.739 141.466 125.399C142.195 125.066 142.591 124.811 142.718 124.597C142.805 124.45 142.813 124.199 142.781 123.789C142.731 123.129 142.673 122.791 142.67 122.683C142.664 122.206 142.72 121.857 142.89 121.516L143.586 121.861C143.451 122.167 143.441 122.668 143.52 123.447C143.592 124.224 143.55 124.718 143.387 124.992C143.193 125.32 142.753 125.638 142.032 125.959C141.307 126.285 140.89 126.52 140.74 126.748C140.59 126.975 140.54 127.447 140.53 128.235C140.521 129.023 140.401 129.551 140.176 129.859C139.988 130.116 139.548 130.349 138.805 130.59C138.052 130.833 137.591 131.043 137.363 131.288L136.77 130.787ZM128.681 138.418C128.99 138.193 129.321 138.073 129.794 137.999C129.941 137.973 130.283 137.963 130.91 137.909C131.32 137.873 131.562 137.817 131.693 137.706C131.883 137.546 132.063 137.107 132.271 136.333C132.478 135.559 132.665 135.082 132.938 134.827C133.212 134.573 133.662 134.458 134.451 134.283C135.235 134.113 135.691 133.962 135.861 133.78C135.978 133.655 136.069 133.39 136.135 132.984C136.244 132.331 136.262 131.982 136.284 131.877C136.392 131.411 136.524 131.078 136.77 130.787L137.363 131.288C137.159 131.553 137.037 132.044 136.927 132.82C136.813 133.592 136.647 134.076 136.43 134.309C136.17 134.588 135.682 134.787 134.905 134.928C134.122 135.074 133.667 135.21 133.468 135.396C133.268 135.581 133.113 136.034 132.918 136.797C132.722 137.561 132.486 138.053 132.195 138.299C131.951 138.504 131.451 138.637 130.674 138.714C129.886 138.791 129.419 138.86 129.139 139.045L128.681 138.418ZM119 144.008C119.349 143.855 119.706 143.827 120.183 143.856C120.332 143.862 120.676 143.945 121.299 144.026C121.708 144.078 121.989 144.067 122.143 143.991C122.366 143.88 122.64 143.488 123.026 142.786C123.412 142.084 123.647 141.693 123.969 141.503C124.291 141.314 124.807 141.271 125.616 141.288C126.418 141.308 126.892 141.262 127.1 141.125C127.243 141.031 127.367 140.818 127.518 140.435C127.764 139.821 127.91 139.465 127.957 139.368C128.172 138.942 128.373 138.642 128.681 138.418L129.139 139.045C128.878 139.254 128.648 139.709 128.358 140.438C128.064 141.16 127.794 141.598 127.527 141.773C127.208 141.983 126.667 142.067 125.879 142.038C125.083 142.014 124.599 142.033 124.365 142.172C124.13 142.31 123.916 142.696 123.544 143.391C123.171 144.086 122.83 144.516 122.488 144.685C122.202 144.827 121.69 144.846 120.917 144.736C120.134 144.622 119.624 144.599 119.311 144.719L119 144.008ZM108.363 147.186C108.74 147.123 109.088 147.167 109.544 147.312C109.686 147.354 109.995 147.503 110.579 147.734C110.963 147.884 111.204 147.947 111.371 147.907C111.613 147.848 111.97 147.541 112.501 146.941C113.032 146.34 113.411 146.002 113.769 145.896C114.127 145.789 114.633 145.861 115.413 146.072C116.187 146.285 116.653 146.343 116.888 146.261C117.049 146.204 117.216 146.016 117.455 145.681C117.842 145.143 118.014 144.847 118.08 144.762C118.383 144.392 118.65 144.161 119 144.008L119.311 144.719C119.01 144.867 118.681 145.244 118.24 145.893C117.796 146.534 117.447 146.887 117.146 146.993C116.786 147.119 116.245 147.082 115.487 146.864C114.721 146.648 114.252 146.562 113.99 146.64C113.729 146.717 113.389 147.048 112.873 147.644C112.357 148.241 111.926 148.57 111.555 148.66C111.245 148.736 110.738 148.626 110.008 148.349C109.269 148.066 108.823 147.911 108.49 147.951L108.363 147.186ZM97.2232 147.83C97.604 147.854 97.9323 147.979 98.3438 148.223C98.4735 148.296 98.7399 148.516 99.2572 148.872C99.5969 149.105 99.8174 149.226 99.9887 149.224C100.238 149.221 100.654 149.011 101.307 148.544C101.959 148.078 102.404 147.842 102.777 147.818C103.15 147.795 103.626 147.988 104.34 148.368C105.046 148.748 105.487 148.919 105.735 148.891C105.905 148.872 106.11 148.737 106.418 148.464C106.915 148.026 107.205 147.774 107.291 147.708C107.675 147.424 107.987 147.248 108.363 147.186L108.49 147.951C108.163 148.021 107.754 148.323 107.167 148.843C106.578 149.356 106.14 149.626 105.823 149.662C105.444 149.705 104.924 149.538 104.234 149.156C103.535 148.775 103.098 148.576 102.826 148.593C102.554 148.61 102.148 148.847 101.511 149.313C100.874 149.779 100.38 149.995 99.9985 150C99.6793 150.004 99.2309 149.79 98.5935 149.34C97.9486 148.882 97.5073 148.64 97.1741 148.604L97.2232 147.83ZM86.2284 145.907C86.5942 146.015 86.8849 146.219 87.231 146.549C87.3409 146.65 87.5501 146.931 87.9738 147.394C88.2525 147.697 88.475 147.869 88.6414 147.909C88.8835 147.968 89.3457 147.842 90.0941 147.554C90.8425 147.265 91.2703 147.113 91.6391 147.174C92.0078 147.235 92.4278 147.534 93.0374 148.065C93.6394 148.595 94.0302 148.864 94.2777 148.892C94.4479 148.912 94.678 148.83 95.0395 148.633C95.6225 148.318 95.9629 148.138 96.0607 148.094C96.4997 147.903 96.8424 147.806 97.2232 147.83L97.1741 148.604C96.8389 148.598 96.3735 148.798 95.6835 149.172C94.9943 149.538 94.5067 149.699 94.1895 149.663C93.8104 149.62 93.3425 149.336 92.756 148.809C92.1617 148.28 91.7809 147.984 91.512 147.94C91.2431 147.895 90.7946 148.031 90.069 148.341C89.3434 148.652 88.8279 148.753 88.4572 148.663C88.147 148.588 87.7431 148.276 87.2232 147.694C86.6977 147.103 86.3235 146.76 86.0069 146.65L86.2284 145.907ZM76.0255 141.513C76.3539 141.707 76.5947 141.964 76.8502 142.369C76.9323 142.493 77.0749 142.804 77.3727 143.357C77.569 143.718 77.7152 143.92 77.8686 143.996C78.0917 144.106 78.5647 144.099 79.3585 143.982C80.1523 143.865 80.663 143.848 81.0055 143.997C81.3479 144.147 81.6898 144.524 82.1498 145.188C82.6025 145.85 82.8891 146.182 83.1241 146.265C83.2857 146.322 83.5661 146.299 83.9652 146.197C84.6082 146.036 84.9327 145.916 85.038 145.894C85.5086 145.807 85.8627 145.798 86.2284 145.907L86.0069 146.65C85.6816 146.57 85.1854 146.65 84.4292 146.861C83.6752 147.064 83.1671 147.102 82.866 146.996C82.5061 146.87 82.1318 146.496 81.6934 145.84C81.2479 145.182 80.9436 144.818 80.6939 144.709C80.4442 144.599 79.968 144.636 79.1884 144.759C78.4087 144.883 77.8645 144.86 77.5228 144.691C77.2369 144.549 76.9183 144.141 76.539 143.46C76.1563 142.768 75.9105 142.364 75.63 142.181L76.0255 141.513ZM67.0544 134.836C67.3337 135.095 67.501 135.413 67.6638 135.863C67.7173 136.002 67.7775 136.352 67.9495 136.955C68.0635 137.35 68.1858 137.603 68.3166 137.714C68.5069 137.874 68.975 137.973 69.7738 138.048C70.5726 138.124 71.024 138.189 71.326 138.409C71.628 138.628 71.8704 139.086 72.1754 139.834C72.4739 140.578 72.7026 140.995 72.9107 141.132C73.0538 141.226 73.2984 141.256 73.7101 141.244C74.3728 141.226 74.7578 141.22 74.8653 141.224C75.3431 141.253 75.697 141.32 76.0255 141.513L75.63 142.181C75.334 142.024 74.8254 141.993 74.0405 142.015C73.2596 142.031 72.7501 141.955 72.4834 141.78C72.1647 141.571 71.8742 141.107 71.5885 140.372C71.2963 139.633 71.0881 139.196 70.8679 139.036C70.6477 138.875 70.2095 138.828 69.4228 138.762C68.6361 138.696 68.1062 138.552 67.8149 138.306C67.5711 138.1 67.3522 137.636 67.1461 136.884C66.9394 136.121 66.7596 135.643 66.5249 135.404L67.0544 134.836ZM59.9004 126.327C60.1101 126.646 60.2045 126.989 60.2562 127.464C60.2752 127.611 60.2579 127.96 60.282 128.587C60.2992 128.998 60.3581 129.273 60.4591 129.411C60.6059 129.612 61.01 129.791 61.7743 130.035C62.5386 130.279 62.9981 130.495 63.2395 130.78C63.4808 131.065 63.6148 131.562 63.7339 132.36C63.8477 133.153 63.9777 133.607 64.1475 133.789C64.2642 133.914 64.5015 133.995 64.9044 134.081C65.5524 134.22 65.8923 134.263 65.9964 134.29C66.457 134.42 66.7751 134.576 67.0544 134.836L66.5249 135.404C66.2694 135.187 65.8101 135.072 65.0423 134.908C64.28 134.738 63.7962 134.551 63.5787 134.318C63.3187 134.039 63.1397 133.526 63.0361 132.744C62.9275 131.957 62.8218 131.489 62.6458 131.281C62.4698 131.073 62.0335 130.889 61.2789 130.658C60.5244 130.426 60.056 130.176 59.8312 129.868C59.6431 129.611 59.533 129.113 59.5111 128.334C59.491 127.544 59.4226 127.042 59.2512 126.754L59.9004 126.327ZM54.8995 116.417C55.0263 116.777 55.0459 117.127 54.9816 117.6C54.9645 117.748 54.8738 118.077 54.7466 118.692C54.6645 119.095 54.6474 119.342 54.7161 119.499C54.816 119.727 55.1834 120.024 55.8672 120.443C56.551 120.862 56.9543 121.176 57.1206 121.511C57.2869 121.845 57.307 122.353 57.2322 123.157C57.1538 123.955 57.1615 124.393 57.2883 124.607C57.3755 124.755 57.6048 124.917 57.976 125.096C58.5722 125.385 58.8999 125.502 58.9946 125.553C59.4112 125.788 59.6906 126.009 59.9004 126.327L59.2512 126.754C59.0544 126.483 58.6204 126.226 57.9055 125.902C57.1971 125.573 56.7818 125.277 56.6194 125.002C56.4252 124.674 56.3773 124.148 56.463 123.365C56.5451 122.574 56.5457 122.1 56.4244 121.856C56.3031 121.612 55.9144 121.335 55.2372 120.93C54.5599 120.525 54.157 120.159 54.0041 119.81C53.8762 119.518 53.8936 119.002 54.0413 118.236C54.1931 117.46 54.2634 116.995 54.1665 116.675L54.8995 116.417ZM52.3323 105.57C52.3757 105.948 52.3048 106.294 52.1367 106.741C52.0871 106.882 51.9123 107.183 51.6518 107.754C51.4822 108.129 51.4113 108.401 51.4393 108.569C51.48 108.815 51.7795 109.189 52.3397 109.763C52.8998 110.336 53.2112 110.669 53.2998 111.032C53.3885 111.394 53.2804 111.897 53.0307 112.665C52.7789 113.426 52.6869 113.89 52.7579 114.129C52.8068 114.292 52.9759 114.471 53.2991 114.726C53.8178 115.138 54.1168 115.38 54.1964 115.453C54.5437 115.782 54.7727 116.058 54.8995 116.417L54.1665 116.675C54.0409 116.365 53.6703 116.016 53.0551 115.529C52.4473 115.039 52.1041 114.655 52.0131 114.35C51.9043 113.985 51.9789 113.444 52.2347 112.699C52.4885 111.946 52.6092 111.48 52.5446 111.216C52.48 110.951 52.177 110.593 51.606 110.049C51.035 109.505 50.735 109.072 50.6726 108.696C50.6204 108.382 50.7468 107.889 51.0788 107.183C51.4173 106.469 51.5831 105.992 51.5603 105.658L52.3323 105.57ZM52.3323 94.4303C52.289 94.8087 52.1385 95.129 51.8736 95.527C51.7936 95.6525 51.5515 95.9065 51.1687 96.4041C50.9188 96.7311 50.7883 96.9799 50.7775 97.1505C50.7617 97.3988 50.9648 97.8305 51.3811 98.5153C51.7973 99.2001 52.0238 99.6611 52.0191 100.034C52.0144 100.407 51.7975 100.804 51.3815 101.497C50.9653 102.181 50.7625 102.613 50.7782 102.861C50.7891 103.032 50.9196 103.281 51.1694 103.608C51.5694 104.135 51.8122 104.385 51.8736 104.473C52.1385 104.871 52.289 105.191 52.3323 105.57L51.5603 105.658C51.5071 105.327 51.2347 104.905 50.7442 104.292C50.2612 103.68 50.0229 103.228 50.0027 102.91C49.9785 102.53 50.1815 102.02 50.5983 101.351C51.0149 100.674 51.2383 100.296 51.2417 100.024C51.2452 99.7523 51.0147 99.3298 50.5979 98.6605C50.181 97.9912 49.9778 97.4816 50.0019 97.1015C50.0221 96.7834 50.2602 96.3321 50.7431 95.7194C51.2344 95.0995 51.5071 94.6726 51.5603 94.3422L52.3323 94.4303ZM54.8995 83.5827C54.7727 83.942 54.5437 84.2185 54.1964 84.5473C54.0903 84.6518 53.79 84.8978 53.2955 85.2851C52.9722 85.54 52.8034 85.7189 52.7545 85.8828C52.6835 86.1213 52.7758 86.5856 53.0276 87.3462C53.2793 88.1068 53.3885 88.6059 53.2998 88.9684C53.2112 89.3309 52.899 89.6677 52.3374 90.2489C51.7773 90.8225 51.4781 91.1969 51.4373 91.4423C51.4093 91.611 51.4803 91.8828 51.6498 92.2575C51.9203 92.8618 52.0968 93.1591 52.1367 93.2589C52.3048 93.7063 52.3757 94.0518 52.3323 94.4303L51.5603 94.3422C51.5831 94.0083 51.4167 93.5353 51.0772 92.8285C50.7452 92.1228 50.6185 91.6299 50.6707 91.3155C50.733 90.9397 51.0325 90.5067 51.6036 89.9625C52.1762 89.4107 52.48 89.0487 52.5446 88.7844C52.6092 88.5201 52.4875 88.0579 52.2317 87.3123C51.9759 86.5667 51.9009 86.0267 52.0097 85.6616C52.1007 85.3561 52.4436 84.9721 53.0515 84.4826C53.669 83.988 54.0409 83.6352 54.1665 83.3249L54.8995 83.5827ZM59.9004 73.6726C59.6906 73.9908 59.4112 74.2122 58.9946 74.4474C58.8663 74.5233 58.5372 74.6443 57.97 74.9146C57.5988 75.0929 57.3695 75.2555 57.2823 75.4027C57.1555 75.6169 57.1483 76.0558 57.2267 76.853C57.3051 77.6502 57.2869 78.1553 57.1206 78.4894C56.9543 78.8236 56.5493 79.1413 55.8622 79.5674C55.1784 79.9865 54.8112 80.284 54.7113 80.512C54.6427 80.6686 54.6601 80.9163 54.7421 81.3192C54.8716 81.9683 54.965 82.2938 54.9816 82.3999C55.0459 82.8734 55.0263 83.2234 54.8995 83.5827L54.1665 83.3249C54.2634 83.0046 54.1915 82.5434 54.0368 81.7749C53.8891 81.0092 53.8714 80.493 53.9994 80.201C54.1523 79.852 54.5551 79.4855 55.2323 79.0805C55.9128 78.6684 56.3031 78.3877 56.4244 78.144C56.5457 77.9004 56.5433 77.4291 56.4577 76.6456C56.372 75.8622 56.4191 75.3358 56.6133 75.0079C56.7758 74.7336 57.1909 74.4367 57.8992 74.1084C58.6182 73.7775 59.0544 73.5169 59.2512 73.2461L59.9004 73.6726ZM67.0544 65.1641C66.7751 65.4236 66.457 65.5796 65.9964 65.7096C65.8538 65.7529 65.5115 65.7996 64.8962 65.9278C64.4932 66.0131 64.2561 66.0945 64.1394 66.2197C63.9696 66.4017 63.8399 66.8556 63.726 67.6486C63.6121 68.4415 63.4808 68.9351 63.2395 69.22C62.9981 69.5049 62.5361 69.7245 61.7669 69.9744C61.0026 70.2183 60.5989 70.3976 60.4521 70.5986C60.3511 70.7368 60.2922 71.0114 60.275 71.4222C60.2448 72.0834 60.2656 72.4294 60.2562 72.5364C60.2045 73.0114 60.1101 73.3544 59.9004 73.6726L59.2512 73.2461C59.4226 72.9585 59.4887 72.4595 59.5044 71.6758C59.5263 70.8964 59.6361 70.399 59.8242 70.1414C60.0491 69.8337 60.5172 69.5832 61.2717 69.3514C62.0311 69.1135 62.4698 68.9266 62.6458 68.7189C62.8218 68.5111 62.925 68.0457 63.0285 67.2644C63.132 66.4831 63.3106 65.9699 63.5706 65.6911C63.7881 65.4578 64.2717 65.27 65.0341 65.1005C65.8073 64.9307 66.2694 64.8129 66.5249 64.5962L67.0544 65.1641ZM76.0255 58.4866C75.697 58.6805 75.3431 58.7475 74.8653 58.7762C74.7167 58.7881 74.3283 58.7836 73.7001 58.7625C73.2883 58.75 73.0439 58.7805 72.9008 58.8746C72.6927 59.0113 72.4642 59.4289 72.1657 60.1725C71.8671 60.916 71.628 61.3716 71.326 61.5915C71.024 61.8114 70.5695 61.8786 69.7646 61.9591C68.9658 62.0348 68.4979 62.1333 68.3076 62.2939C68.1768 62.4043 68.0762 62.6277 67.9716 63.0255C67.8009 63.665 67.6983 64.0355 67.6638 64.1373C67.501 64.5866 67.3337 64.9045 67.0544 65.1641L66.5249 64.5962C66.7596 64.3573 66.9363 63.8813 67.1373 63.1235C67.3433 62.3715 67.562 61.9073 67.8058 61.7015C68.0972 61.4555 68.6271 61.311 69.4138 61.2451C70.2066 61.1743 70.6477 61.1247 70.8679 60.9644C71.0881 60.8041 71.2933 60.3691 71.579 59.6345C71.8648 58.8998 72.1548 58.436 72.4735 58.2265C72.7402 58.0513 73.2496 57.9758 74.0304 57.9914C74.8219 58.0093 75.334 57.9758 75.63 57.8188L76.0255 58.4866ZM86.2284 54.0933C85.8627 54.2019 85.5086 54.1932 85.038 54.1058C84.8909 54.0815 84.5626 53.9637 83.954 53.8066C83.5549 53.705 83.2745 53.6824 83.1129 53.7392C82.8779 53.8219 82.5916 54.1547 82.1388 54.816C81.686 55.4773 81.3479 55.853 81.0055 56.0026C80.663 56.1521 80.1486 56.1364 79.3477 56.0227C78.5539 55.9057 78.0811 55.8988 77.858 56.0095C77.7046 56.0856 77.5586 56.2871 77.3622 56.6486C77.0439 57.2291 76.9057 57.5395 76.8502 57.6315C76.5947 58.0355 76.3539 58.2928 76.0255 58.4866L75.63 57.8188C75.9104 57.6355 76.1527 57.2339 76.5285 56.5456C76.9078 55.8641 77.2262 55.4566 77.5122 55.3147C77.8538 55.1452 78.3982 55.122 79.1779 55.2456C79.9647 55.3659 80.4442 55.4006 80.6939 55.2915C80.9436 55.1825 81.2444 54.8194 81.6828 54.1639C82.1211 53.5085 82.4949 53.134 82.8548 53.0075C83.1559 52.9016 83.664 52.9392 84.4179 53.1428C85.1816 53.3512 85.6816 53.4305 86.0069 53.3497L86.2284 54.0933ZM97.2232 52.1701C96.8424 52.1942 96.4997 52.0966 96.0607 51.9063C95.9227 51.8498 95.5783 51.6703 95.0277 51.3678C94.6662 51.1707 94.4362 51.0896 94.266 51.1091C94.0184 51.1373 93.6277 51.4071 93.0257 51.9367C92.4237 52.4664 92.0078 52.7649 91.6391 52.8259C91.2703 52.8868 90.8385 52.7363 90.0825 52.449C89.3341 52.16 88.872 52.0344 88.6299 52.0934C88.4635 52.1339 88.241 52.3058 87.9623 52.6086C87.5119 53.0942 87.3073 53.3753 87.231 53.451C86.8849 53.781 86.5942 53.9847 86.2284 54.0933L86.0069 53.3497C86.3235 53.2398 86.6938 52.8985 87.2118 52.3093C87.7317 51.7275 88.1355 51.4152 88.4457 51.3397C88.8164 51.2494 89.3321 51.3504 90.0577 51.6609C90.7909 51.9699 91.2431 52.1046 91.512 52.0602C91.7809 52.0157 92.158 51.7201 92.7446 51.1926C93.3311 50.6651 93.7986 50.3815 94.1777 50.3383C94.4949 50.3021 94.9825 50.4627 95.6717 50.8293C96.3695 51.2029 96.8389 51.4018 97.1741 51.3959L97.2232 52.1701ZM108.363 52.8145C107.987 52.7522 107.675 52.5763 107.291 52.2921C107.169 52.2059 106.874 51.9535 106.406 51.5347C106.098 51.2613 105.893 51.1271 105.723 51.1077C105.475 51.0795 105.034 51.2509 104.328 51.6313C103.622 52.0117 103.15 52.2053 102.777 52.1817C102.404 52.1581 101.955 51.9219 101.295 51.4553C100.642 50.989 100.261 50.7727 100.012 50.7758C99.8405 50.778 99.585 50.8955 99.2453 51.1281C98.6971 51.5002 98.4352 51.7207 98.3438 51.7775C97.9323 52.0215 97.604 52.1461 97.2232 52.1701L97.1741 51.3959C97.5073 51.3596 97.9445 51.1187 98.5816 50.6605C99.2191 50.21 99.6827 50.0041 100.002 50.0001C100.383 49.9953 100.863 50.221 101.5 50.6867C102.144 51.1527 102.554 51.3899 102.826 51.4071C103.098 51.4243 103.531 51.2249 104.222 50.8431C104.913 50.4613 105.432 50.2937 105.811 50.3369C106.128 50.3731 106.566 50.6428 107.155 51.1552C107.75 51.6763 108.163 51.9794 108.49 52.0491L108.363 52.8145ZM119 55.992C118.65 55.8393 118.383 55.6081 118.08 55.238C117.984 55.1247 117.807 54.8272 117.444 54.315C117.205 53.9801 117.038 53.7921 116.876 53.7353C116.641 53.6527 116.176 53.711 115.402 53.9243C114.629 54.1375 114.127 54.2108 113.769 54.1044C113.41 53.998 113.028 53.6586 112.489 53.056C111.958 52.4554 111.601 52.1495 111.359 52.0906C111.193 52.05 110.951 52.1131 110.568 52.2633C109.95 52.5027 109.645 52.6535 109.544 52.6883C109.088 52.8334 108.74 52.8767 108.363 52.8145L108.49 52.0491C108.823 52.0887 109.265 51.9333 109.997 51.6484C110.726 51.3711 111.233 51.2613 111.543 51.3369C111.914 51.4272 112.346 51.7564 112.861 52.3529C113.385 52.9514 113.729 53.2829 113.99 53.3605C114.252 53.4381 114.717 53.3504 115.476 53.1324C116.234 52.9143 116.775 52.877 117.135 53.0036C117.436 53.1094 117.785 53.4615 118.229 54.1029C118.678 54.7543 119.01 55.1333 119.311 55.2812L119 55.992ZM128.681 61.5822C128.373 61.3577 128.172 61.0584 127.957 60.6317C127.887 60.5001 127.737 60.1421 127.508 59.5578C127.357 59.1753 127.233 58.9621 127.09 58.8681C126.882 58.7313 126.408 58.6859 125.606 58.7062C124.804 58.7265 124.291 58.6864 123.969 58.4965C123.647 58.3066 123.409 57.9144 123.016 57.2085C122.63 56.5063 122.355 56.1149 122.132 56.0042C121.978 55.9281 121.697 55.9163 121.289 55.9685C120.631 56.0499 120.291 56.1352 120.183 56.144C119.706 56.1732 119.349 56.1447 119 55.992L119.311 55.2812C119.624 55.4013 120.13 55.3758 120.906 55.2592C121.68 55.1494 122.192 55.1676 122.478 55.3095C122.819 55.479 123.161 55.9091 123.533 56.6041C123.913 57.3027 124.13 57.69 124.365 57.8284C124.599 57.9669 125.08 57.984 125.869 57.9555C126.658 57.9269 127.198 58.0106 127.517 58.2201C127.784 58.3953 128.054 58.8336 128.348 59.5558C128.645 60.2886 128.878 60.7461 129.139 60.9554L128.681 61.5822ZM136.77 69.2125C136.524 68.9217 136.392 68.589 136.284 68.1235C136.247 67.9792 136.226 67.6274 136.127 67.0077C136.061 66.6018 135.97 66.3362 135.853 66.211C135.683 66.0289 135.227 65.8788 134.443 65.7087C133.659 65.5386 133.212 65.4268 132.938 65.1725C132.665 64.9183 132.475 64.4379 132.262 63.659C132.054 62.8852 131.874 62.4469 131.684 62.2862C131.553 62.1758 131.311 62.12 130.9 62.0832C130.24 62.0214 129.901 62.0159 129.794 62.0014C129.321 61.9271 128.99 61.8066 128.681 61.5822L129.139 60.9554C129.419 61.14 129.883 61.2063 130.665 61.2782C131.442 61.356 131.942 61.488 132.186 61.6938C132.477 61.9398 132.713 62.4315 132.909 63.1949C133.111 63.9635 133.268 64.4191 133.468 64.6044C133.667 64.7898 134.12 64.9239 134.896 65.0644C135.673 65.2049 136.162 65.4036 136.422 65.6824C136.639 65.9157 136.805 66.3995 136.92 67.1707C137.034 67.9527 137.159 68.4465 137.363 68.7116L136.77 69.2125ZM142.89 78.4843C142.72 78.1432 142.664 77.7944 142.67 77.3166C142.669 77.1677 142.724 76.8262 142.775 76.2008C142.808 75.7909 142.799 75.5398 142.712 75.3926C142.585 75.1784 142.189 74.9243 141.46 74.5908C140.73 74.2574 140.296 73.9907 140.09 73.679C139.885 73.3673 139.808 72.8612 139.785 72.054C139.767 71.2531 139.688 70.79 139.541 70.589C139.44 70.4509 139.211 70.3448 138.821 70.2122C138.194 69.9964 137.859 69.9163 137.759 69.877C137.317 69.6932 137.016 69.5034 136.77 69.2125L137.363 68.7116C137.591 68.957 138.049 69.1638 138.798 69.4004C139.541 69.6417 139.981 69.8744 140.169 70.1319C140.394 70.4396 140.514 70.9679 140.524 71.7559C140.537 72.5504 140.59 73.025 140.74 73.2523C140.89 73.4795 141.305 73.7115 142.026 74.0317C142.747 74.352 143.187 74.6698 143.381 74.9977C143.544 75.2721 143.587 75.7658 143.514 76.5421C143.439 77.3289 143.451 77.8329 143.586 78.1391L142.89 78.4843ZM146.712 88.9656C146.621 88.5956 146.659 88.2405 146.77 87.7757C146.801 87.6302 146.918 87.2603 147.12 86.6661C147.251 86.2763 147.291 86.0354 147.243 85.8715C147.172 85.6331 146.837 85.2955 146.21 84.7959C145.582 84.2963 145.214 83.9385 145.09 83.5865C144.966 83.2346 145.034 82.7833 145.187 81.9903C145.343 81.2046 145.384 80.729 145.284 80.5011C145.216 80.3444 145.008 80.1552 144.661 79.9333C144.104 79.574 143.788 79.4216 143.7 79.3596C143.315 79.0758 143.06 78.8254 142.89 78.4843L143.586 78.1391C143.749 78.4316 144.153 78.7364 144.824 79.1446C145.487 79.556 145.868 79.8982 145.996 80.1902C146.149 80.5392 146.135 81.0877 145.973 81.8591C145.814 82.6376 145.733 83.072 145.823 83.3287C145.914 83.5853 146.272 83.9052 146.895 84.39C147.517 84.8749 147.879 85.2852 147.987 85.6503C148.078 85.9558 148.005 86.4635 147.764 87.2051C147.517 87.9562 147.402 88.4534 147.467 88.7817L146.712 88.9656ZM147.993 100.034C147.988 99.6532 148.097 99.2514 148.32 98.8288C148.387 98.6958 148.585 98.4192 148.916 97.8855C149.131 97.535 149.233 97.3094 149.222 97.1387C149.207 96.8905 148.966 96.4867 148.466 95.8598C147.967 95.2329 147.699 94.8023 147.657 94.4316C147.614 94.0609 147.774 93.5774 148.118 92.8465C148.463 92.1232 148.602 91.6761 148.561 91.4306C148.533 91.2619 148.378 91.0656 148.089 90.7726C147.626 90.2992 147.366 90.0793 147.294 89.9995C146.981 89.6378 146.802 89.3357 146.712 88.9656L147.467 88.7817C147.561 89.1029 147.873 89.4914 148.437 90.0372C148.993 90.5846 149.276 90.9894 149.328 91.3038C149.39 91.6796 149.259 92.2046 148.912 92.9124C148.566 93.628 148.398 94.0731 148.429 94.3435C148.46 94.6138 148.727 95.0056 149.225 95.617C149.723 96.2284 149.974 96.7095 149.998 97.0897C150.018 97.4078 149.823 97.8862 149.422 98.5549C149.013 99.2316 148.781 99.6898 148.77 100.024L147.993 100.034Z" fill="#FFFEE9"/>
</svg>
