<svg width="58" height="58" viewBox="0 0 58 58" fill="none" xmlns="http://www.w3.org/2000/svg">
<path d="M13.2917 19.3333V50.75M29.0001 35.0417V50.75M29.0001 22.9583V7.25M44.7084 7.25V38.6667" stroke="#D7452C" stroke-width="2" stroke-linecap="round" stroke-linejoin="round"/>
<path d="M13.2917 19.3333C14.894 19.3333 16.4307 18.6968 17.5638 17.5638C18.6968 16.4307 19.3333 14.894 19.3333 13.2917C19.3333 11.6893 18.6968 10.1526 17.5638 9.01956C16.4307 7.88653 14.894 7.25 13.2917 7.25C11.6893 7.25 10.1526 7.88653 9.01956 9.01956C7.88653 10.1526 7.25 11.6893 7.25 13.2917C7.25 14.894 7.88653 16.4307 9.01956 17.5638C10.1526 18.6968 11.6893 19.3333 13.2917 19.3333ZM29 35.0417C30.6024 35.0417 32.1391 34.4051 33.2721 33.2721C34.4051 32.1391 35.0417 30.6024 35.0417 29C35.0417 27.3977 34.4051 25.8609 33.2721 24.7279C32.1391 23.5949 30.6024 22.9583 29 22.9583C27.3977 22.9583 25.8609 23.5949 24.7279 24.7279C23.5949 25.8609 22.9583 27.3977 22.9583 29C22.9583 30.6024 23.5949 32.1391 24.7279 33.2721C25.8609 34.4051 27.3977 35.0417 29 35.0417ZM44.7083 50.75C46.3107 50.75 47.8474 50.1135 48.9804 48.9804C50.1135 47.8474 50.75 46.3107 50.75 44.7083C50.75 43.106 50.1135 41.5693 48.9804 40.4362C47.8474 39.3032 46.3107 38.6667 44.7083 38.6667C43.106 38.6667 41.5693 39.3032 40.4362 40.4362C39.3032 41.5693 38.6667 43.106 38.6667 44.7083C38.6667 46.3107 39.3032 47.8474 40.4362 48.9804C41.5693 50.1135 43.106 50.75 44.7083 50.75Z" fill="#D7452C" stroke="#D7452C" stroke-width="2" stroke-linejoin="round"/>
</svg>
