<svg width="48" height="48" viewBox="0 0 48 48" fill="none" xmlns="http://www.w3.org/2000/svg">
<g clip-path="url(#clip0_141_804)">
<path d="M48 23.999C48 37.247 37.248 47.999 24 47.999C10.752 47.999 5.72205e-06 37.247 5.72205e-06 23.999C5.72205e-06 10.751 10.752 -0.000976562 24 -0.000976562C37.248 -0.000976562 48 10.751 48 23.999ZM18.944 42.943C19.104 42.303 18.752 41.663 18.144 41.439L17.376 41.183C14.8901 40.2153 12.6425 38.7222 10.7868 36.8058C8.93114 34.8893 7.51117 32.5948 6.624 30.079C6.592 30.015 6.592 29.951 6.56001 29.855C6.336 29.247 5.696 28.895 5.056 29.055H4.99201C4.384 29.279 4.064 29.919 4.25601 30.527L4.32 30.719L4.352 30.879C5.40717 33.8606 7.12439 36.5642 9.37463 38.7868C11.6249 41.0093 14.3496 42.6929 17.344 43.711C17.376 43.711 17.408 43.743 17.472 43.743L17.504 43.775C18.144 43.935 18.784 43.551 18.944 42.943ZM20.384 37.535C20.544 36.895 20.224 36.255 19.616 36.031L19.552 35.999C17.8269 35.3617 16.2593 34.3601 14.9561 33.0624C13.6529 31.7647 12.6447 30.2014 12 28.479C12 28.447 12 28.415 11.968 28.383C11.744 27.775 11.104 27.455 10.464 27.615L10.4 27.647C9.792 27.839 9.472 28.479 9.66401 29.087L9.72801 29.215L9.76 29.343C10.5377 31.4184 11.7598 33.2987 13.3408 34.852C14.9217 36.4053 16.8232 37.5941 18.912 38.335H18.976C19.2687 38.4137 19.5807 38.3739 19.8443 38.2242C20.1079 38.0744 20.3018 37.8268 20.384 37.535ZM33.6 23.999C33.6 18.687 29.312 14.399 24 14.399C18.688 14.399 14.4 18.687 14.4 23.999C14.4 29.311 18.688 33.599 24 33.599C29.312 33.599 33.6 29.311 33.6 23.999ZM26.4 23.999C26.4 25.311 25.312 26.399 24 26.399C22.688 26.399 21.6 25.311 21.6 23.999C21.6 22.687 22.688 21.599 24 21.599C25.312 21.599 26.4 22.687 26.4 23.999ZM37.6 20.383C37.8896 20.281 38.1282 20.0704 38.2656 19.7958C38.4029 19.5212 38.4281 19.2039 38.336 18.911L38.304 18.815L38.272 18.751C36.832 14.815 33.792 11.615 29.92 9.98302C29.696 9.88702 29.408 9.79102 29.088 9.69502C29.056 9.66302 29.024 9.66302 28.992 9.66302C28.384 9.50302 27.776 9.85502 27.616 10.463C27.424 11.103 27.776 11.775 28.416 11.999L28.704 12.095C28.896 12.191 29.088 12.255 29.216 12.319C32.3139 13.7062 34.7399 16.2587 35.968 19.423C35.968 19.487 36 19.551 36.032 19.583C36.256 20.223 36.896 20.575 37.536 20.383H37.6ZM42.976 18.943C43.616 18.751 43.936 18.079 43.744 17.471V17.439L43.712 17.375C42.6833 14.315 40.9565 11.5364 38.6682 9.25926C36.3799 6.98208 33.593 5.2688 30.528 4.25502C30.496 4.25502 30.496 4.22302 30.464 4.22302C29.856 4.06302 29.216 4.44702 29.056 5.05502C28.896 5.69502 29.248 6.36702 29.856 6.55902L30.144 6.65502L30.368 6.75102C35.552 8.63902 39.648 12.831 41.44 18.079V18.143C41.664 18.751 42.304 19.103 42.944 18.943H42.976Z" fill="#FFFEE9"/>
<rect x="21" y="21" width="6" height="6" fill="#181818"/>
<path d="M24.0001 32.1598C19.4881 32.1598 15.8401 28.5118 15.8401 23.9998C15.8401 19.4878 19.4881 15.8398 24.0001 15.8398C28.5121 15.8398 32.1601 19.4878 32.1601 23.9998C32.1601 28.5118 28.5121 32.1598 24.0001 32.1598ZM24.0001 16.7998C20.0161 16.7998 16.8001 20.0158 16.8001 23.9998C16.8001 27.9838 20.0161 31.1998 24.0001 31.1998C27.9841 31.1998 31.2001 27.9838 31.2001 23.9998C31.2001 20.0158 27.9841 16.7998 24.0001 16.7998Z" fill="#FFFEE9"/>
<path d="M19.6799 23.52H28.3199V24.48H19.6799V23.52Z" fill="#FFFEE9"/>
<path d="M23.52 19.6802H24.48V28.3202H23.52V19.6802Z" fill="#FFFEE9"/>
</g>
<defs>
<clipPath id="clip0_141_804">
<rect width="48" height="48" fill="white"/>
</clipPath>
</defs>
</svg>
