<svg width="32" height="32" viewBox="0 0 32 32" fill="none" xmlns="http://www.w3.org/2000/svg">
<path d="M28.4048 24.7331V7.22272L28.4051 7.22112L28.4048 7.21952V7.14432H28.3971C28.3784 6.94377 28.2857 6.75736 28.137 6.6215C27.9883 6.48564 27.7943 6.41009 27.5929 6.4096C27.5833 6.4096 27.5744 6.41216 27.5651 6.41248H26.103C26.0803 6.41056 26.0582 6.40576 26.0348 6.40576C25.8196 6.40602 25.6132 6.49163 25.4611 6.64383C25.3089 6.79602 25.2232 7.00237 25.223 7.2176C25.223 7.25504 25.2291 7.2912 25.2342 7.32736V14.7325L14.5651 8.57248C14.489 8.49728 14.3926 8.44595 14.2877 8.4248C14.1829 8.40366 14.0741 8.41362 13.9748 8.45347C13.8756 8.49332 13.7901 8.56131 13.7289 8.64908C13.6678 8.73686 13.6336 8.84059 13.6307 8.94752H13.6287V13.8272L4.52731 8.57216C4.45123 8.49696 4.35483 8.44563 4.24997 8.42448C4.14511 8.40334 4.03635 8.4133 3.93708 8.45315C3.8378 8.493 3.75233 8.56099 3.69119 8.64876C3.63004 8.73654 3.59588 8.84027 3.59291 8.9472H3.59131V23.0371C3.59146 23.1464 3.62417 23.2531 3.68525 23.3437C3.74633 23.4343 3.83301 23.5046 3.93424 23.5457C4.03547 23.5868 4.14665 23.5968 4.2536 23.5745C4.36054 23.5521 4.45839 23.4984 4.53467 23.4202L13.6287 18.1696V23.0374C13.6289 23.1467 13.6616 23.2534 13.7227 23.344C13.7838 23.4346 13.8705 23.5049 13.9717 23.546C14.0729 23.5871 14.1841 23.5972 14.291 23.5748C14.398 23.5524 14.4958 23.4987 14.5721 23.4205L25.2342 17.2646V24.7469H25.2384C25.2377 24.7594 25.2345 24.7709 25.2345 24.7834C25.2346 24.9983 25.3199 25.2045 25.4718 25.3566C25.6237 25.5088 25.8298 25.5945 26.0448 25.5949H27.5974V25.5872C27.704 25.5872 27.8096 25.5662 27.9081 25.5254C28.0066 25.4846 28.0961 25.4248 28.1714 25.3494C28.2468 25.274 28.3066 25.1845 28.3474 25.086C28.3882 24.9875 28.4092 24.882 28.4092 24.7754C28.4089 24.7606 28.4054 24.7472 28.4048 24.7331Z" fill="#FFFEE9"/>
</svg>
