<svg width="38" height="38" viewBox="0 0 38 38" fill="none" xmlns="http://www.w3.org/2000/svg">
<path d="M6.64654 34.3218L11.8415 32.5896C13.0685 32.1811 13.6813 31.9769 14.2576 31.703C14.9377 31.378 15.5805 30.9804 16.175 30.5171C16.6785 30.1244 17.1361 29.6668 18.0497 28.7532L31.5413 15.2632L33.009 13.7955C34.1766 12.6279 34.8326 11.0443 34.8326 9.39301C34.8326 7.74177 34.1766 6.15815 33.009 4.99055C31.8414 3.82295 30.2578 3.16699 28.6066 3.16699C26.9553 3.16699 25.3717 3.82295 24.2041 4.99055L22.7364 6.4583L9.24321 19.9483C8.32962 20.8635 7.87204 21.3211 7.47937 21.8246C7.01608 22.4191 6.61846 23.0619 6.29345 23.742C6.01954 24.3183 5.81529 24.9326 5.40679 26.1581L3.67462 31.3531M31.5413 15.2632C31.5413 15.2632 28.4237 15.0796 25.6719 12.3277C22.92 9.57747 22.738 6.4583 22.738 6.4583M6.64654 34.3218L5.3767 34.7461C5.08071 34.8454 4.76289 34.8601 4.45898 34.7887C4.15508 34.7172 3.87712 34.5624 3.65637 34.3416C3.43561 34.1209 3.28081 33.8429 3.20935 33.539C3.13789 33.2351 3.15262 32.9173 3.25187 32.6213L3.6762 31.3515L6.64654 34.3218Z" stroke="#FFFEE9" stroke-width="1.5"/>
</svg>
