<svg width="81" height="54" viewBox="0 0 81 54" fill="none" xmlns="http://www.w3.org/2000/svg">
<rect x="64" y="12" width="17" height="2" fill="#999999"/>
<rect x="52" y="32" width="29" height="2" fill="#999999"/>
<rect x="47" y="42" width="34" height="2" fill="#999999"/>
<rect x="57" y="22" width="24" height="2" fill="#999999"/>
<rect x="38" y="52" width="43" height="2" fill="#999999"/>
<g clip-path="url(#clip0_111_18)">
<path d="M24 0C37.248 0 48 10.752 48 24C48 37.248 37.248 48 24 48C10.752 48 0 37.248 0 24C0 10.752 10.752 0 24 0ZM42.944 29.056C42.304 28.896 41.664 29.248 41.44 29.856L41.184 30.624C40.2163 33.1099 38.7232 35.3575 36.8067 37.2132C34.8903 39.0689 32.5958 40.4888 30.08 41.376C30.016 41.408 29.952 41.408 29.856 41.44C29.248 41.664 28.896 42.304 29.056 42.944V43.008C29.28 43.616 29.92 43.936 30.528 43.744L30.72 43.68L30.88 43.648C33.8616 42.5928 36.5652 40.8756 38.7877 38.6254C41.0103 36.3751 42.6939 33.6504 43.712 30.656C43.712 30.624 43.744 30.592 43.744 30.528L43.776 30.496C43.936 29.856 43.552 29.216 42.944 29.056ZM37.536 27.616C36.896 27.456 36.256 27.776 36.032 28.384L36 28.448C35.3627 30.1731 34.361 31.7407 33.0634 33.0439C31.7657 34.3471 30.2024 35.3553 28.48 36C28.448 36 28.416 36 28.384 36.032C27.776 36.256 27.456 36.896 27.616 37.536L27.648 37.6C27.84 38.208 28.48 38.528 29.088 38.336L29.216 38.272L29.344 38.24C31.4194 37.4623 33.2997 36.2402 34.853 34.6593C36.4063 33.0783 37.595 31.1768 38.336 29.088V29.024C38.4147 28.7313 38.3749 28.4193 38.2251 28.1557C38.0754 27.8921 37.8278 27.6982 37.536 27.616ZM24 14.4C18.688 14.4 14.4 18.688 14.4 24C14.4 29.312 18.688 33.6 24 33.6C29.312 33.6 33.6 29.312 33.6 24C33.6 18.688 29.312 14.4 24 14.4ZM24 21.6C25.312 21.6 26.4 22.688 26.4 24C26.4 25.312 25.312 26.4 24 26.4C22.688 26.4 21.6 25.312 21.6 24C21.6 22.688 22.688 21.6 24 21.6ZM20.384 10.4C20.282 10.1104 20.0714 9.87176 19.7968 9.73444C19.5221 9.59712 19.2049 9.57186 18.912 9.664L18.816 9.696L18.752 9.728C14.816 11.168 11.616 14.208 9.984 18.08C9.888 18.304 9.792 18.592 9.696 18.912C9.664 18.944 9.664 18.976 9.664 19.008C9.504 19.616 9.856 20.224 10.464 20.384C11.104 20.576 11.776 20.224 12 19.584L12.096 19.296C12.192 19.104 12.256 18.912 12.32 18.784C13.7072 15.6861 16.2597 13.2601 19.424 12.032C19.488 12.032 19.552 12 19.584 11.968C20.224 11.744 20.576 11.104 20.384 10.464V10.4ZM18.944 5.024C18.752 4.384 18.08 4.064 17.472 4.256H17.44L17.376 4.288C14.316 5.31668 11.5374 7.0435 9.26024 9.33179C6.98306 11.6201 5.26977 14.407 4.256 17.472C4.256 17.504 4.224 17.504 4.224 17.536C4.064 18.144 4.448 18.784 5.056 18.944C5.696 19.104 6.368 18.752 6.56 18.144L6.656 17.856L6.752 17.632C8.64 12.448 12.832 8.352 18.08 6.56H18.144C18.752 6.336 19.104 5.696 18.944 5.056V5.024Z" fill="#999999"/>
</g>
<defs>
<clipPath id="clip0_111_18">
<rect width="48" height="48" fill="white"/>
</clipPath>
</defs>
</svg>
