<svg width="32" height="32" viewBox="0 0 32 32" fill="none" xmlns="http://www.w3.org/2000/svg">
<path d="M16.0001 26.8801C9.98412 26.8801 5.12012 22.0161 5.12012 16.0001C5.12012 9.98412 9.98412 5.12012 16.0001 5.12012C22.0161 5.12012 26.8801 9.98412 26.8801 16.0001C26.8801 22.0161 22.0161 26.8801 16.0001 26.8801ZM16.0001 6.40012C10.6881 6.40012 6.40012 10.6881 6.40012 16.0001C6.40012 21.3121 10.6881 25.6001 16.0001 25.6001C21.3121 25.6001 25.6001 21.3121 25.6001 16.0001C25.6001 10.6881 21.3121 6.40012 16.0001 6.40012Z" fill="#FFFEE9"/>
<path d="M10.24 15.3599H21.76V16.6399H10.24V15.3599Z" fill="#FFFEE9"/>
<path d="M15.3601 10.2402H16.6401V21.7602H15.3601V10.2402Z" fill="#FFFEE9"/>
</svg>
