<svg width="32" height="32" viewBox="0 0 32 32" fill="none" xmlns="http://www.w3.org/2000/svg">
<path d="M27.8592 8.4132C27.7047 8.4132 27.5655 8.4772 27.4656 8.57992L18.3712 13.8305V8.96296C18.3711 8.8537 18.3384 8.74697 18.2773 8.65638C18.2162 8.5658 18.1295 8.49546 18.0283 8.45436C17.9271 8.41326 17.8159 8.40325 17.7089 8.42561C17.602 8.44798 17.5041 8.5017 17.4279 8.57992L6.7661 14.7358V7.25352H6.76194C6.76258 7.24104 6.76578 7.22952 6.76578 7.21704C6.7657 7.00206 6.68035 6.79589 6.52846 6.64375C6.37656 6.49162 6.17052 6.40594 5.95554 6.40552H4.4029V6.4132C4.18759 6.4132 3.9811 6.49873 3.82885 6.65098C3.6766 6.80323 3.59106 7.00972 3.59106 7.22504C3.59106 7.23944 3.59458 7.25256 3.59522 7.26696V24.8564H3.6029C3.62153 25.057 3.71425 25.2434 3.86295 25.3792C4.01165 25.5151 4.20565 25.5906 4.40706 25.5911C4.41666 25.5911 4.42562 25.5886 4.4349 25.5882H5.89698C5.9197 25.5902 5.94178 25.595 5.96514 25.595C6.41314 25.595 6.77698 25.2314 6.77698 24.7831C6.77698 24.7457 6.7709 24.7095 6.76578 24.6734V17.2679L17.4349 23.4279C17.511 23.5031 17.6074 23.5545 17.7122 23.5756C17.8171 23.5967 17.9259 23.5868 18.0251 23.5469C18.1244 23.5071 18.2099 23.4391 18.271 23.3513C18.3322 23.2635 18.3663 23.1598 18.3693 23.0529H18.3709V18.1732L27.4727 23.4282C27.5487 23.5034 27.6451 23.5548 27.75 23.5759C27.8549 23.5971 27.9636 23.5871 28.0629 23.5473C28.1622 23.5074 28.2476 23.4394 28.3088 23.3516C28.3699 23.2639 28.4041 23.1601 28.4071 23.0532H28.4087V8.96296C28.4087 8.89078 28.3945 8.8193 28.3669 8.7526C28.3393 8.6859 28.2989 8.62529 28.2479 8.57424C28.1968 8.52318 28.1362 8.48268 28.0696 8.45505C28.0029 8.42742 27.9314 8.4132 27.8592 8.4132Z" fill="#FFFEE9"/>
</svg>
