<svg width="64" height="64" viewBox="0 0 64 64" fill="none" xmlns="http://www.w3.org/2000/svg">
<g clip-path="url(#clip0_99_15)">
<path d="M32 0C49.664 0 64 14.336 64 32C64 49.664 49.664 64 32 64C14.336 64 0 49.664 0 32C0 14.336 14.336 0 32 0ZM57.2587 38.7413C56.4053 38.528 55.552 38.9973 55.2533 39.808L54.912 40.832C53.6217 44.1465 51.6309 47.1434 49.0756 49.6176C46.5204 52.0918 43.461 53.9851 40.1067 55.168C40.0213 55.2107 39.936 55.2107 39.808 55.2533C38.9973 55.552 38.528 56.4053 38.7413 57.2587V57.344C39.04 58.1547 39.8933 58.5813 40.704 58.3253L40.96 58.24L41.1733 58.1973C45.1488 56.7905 48.7536 54.5008 51.717 51.5005C54.6804 48.5002 56.9252 44.8672 58.2827 40.8747C58.2827 40.832 58.3253 40.7893 58.3253 40.704L58.368 40.6613C58.5813 39.808 58.0693 38.9547 57.2587 38.7413ZM50.048 36.8213C49.1947 36.608 48.3413 37.0347 48.0427 37.8453L48 37.9307C47.1502 40.2309 45.8147 42.3209 44.0845 44.0585C42.3542 45.7961 40.2699 47.1405 37.9733 48C37.9307 48 37.888 48 37.8453 48.0427C37.0347 48.3413 36.608 49.1947 36.8213 50.048L36.864 50.1333C37.12 50.944 37.9733 51.3707 38.784 51.1147L38.9547 51.0293L39.1253 50.9867C41.8926 49.9498 44.3995 48.3203 46.4706 46.2123C48.5417 44.1044 50.1267 41.5691 51.1147 38.784V38.6987C51.2196 38.3083 51.1665 37.8924 50.9669 37.541C50.7672 37.1895 50.437 36.931 50.048 36.8213ZM32 19.2C24.9173 19.2 19.2 24.9173 19.2 32C19.2 39.0827 24.9173 44.8 32 44.8C39.0827 44.8 44.8 39.0827 44.8 32C44.8 24.9173 39.0827 19.2 32 19.2ZM32 28.8C33.7493 28.8 35.2 30.2507 35.2 32C35.2 33.7493 33.7493 35.2 32 35.2C30.2507 35.2 28.8 33.7493 28.8 32C28.8 30.2507 30.2507 28.8 32 28.8ZM27.1787 13.8667C27.0426 13.4805 26.7619 13.1623 26.3957 12.9792C26.0295 12.7962 25.6065 12.7625 25.216 12.8853L25.088 12.928L25.0027 12.9707C19.7547 14.8907 15.488 18.944 13.312 24.1067C13.184 24.4053 13.056 24.7893 12.928 25.216C12.8853 25.2587 12.8853 25.3013 12.8853 25.344C12.672 26.1547 13.1413 26.9653 13.952 27.1787C14.8053 27.4347 15.7013 26.9653 16 26.112L16.128 25.728C16.256 25.472 16.3413 25.216 16.4267 25.0453C18.2762 20.9149 21.6796 17.6801 25.8987 16.0427C25.984 16.0427 26.0693 16 26.112 15.9573C26.9653 15.6587 27.4347 14.8053 27.1787 13.952V13.8667ZM25.2587 6.69867C25.0027 5.84533 24.1067 5.41867 23.296 5.67467H23.2533L23.168 5.71733C19.088 7.0889 15.3832 9.39134 12.347 12.4424C9.31075 15.4934 7.02636 19.2094 5.67467 23.296C5.67467 23.3387 5.632 23.3387 5.632 23.3813C5.41867 24.192 5.93067 25.0453 6.74133 25.2587C7.59467 25.472 8.49067 25.0027 8.74667 24.192L8.87467 23.808L9.00267 23.5093C11.52 16.5973 17.1093 11.136 24.1067 8.74667H24.192C25.0027 8.448 25.472 7.59467 25.2587 6.74133V6.69867Z" fill="#D7452C"/>
</g>
<defs>
<clipPath id="clip0_99_15">
<rect width="64" height="64" fill="white"/>
</clipPath>
</defs>
</svg>
